<?xml version="1.0" encoding="UTF-8"?>
<svg width="145px" height="121px" viewBox="0 0 145 121" version="1.1" xmlns="http://www.w3.org/2000/svg" xmlns:xlink="http://www.w3.org/1999/xlink">
    <title>undraw_mail_2_tqip</title>
    <defs>
        <linearGradient x1="50.003653%" y1="100.013831%" x2="50.003653%" y2="0.00485949042%" id="linearGradient-1">
            <stop stop-color="#808080" stop-opacity="0.25" offset="0%"></stop>
            <stop stop-color="#808080" stop-opacity="0.12" offset="54%"></stop>
            <stop stop-color="#808080" stop-opacity="0.1" offset="100%"></stop>
        </linearGradient>
        <linearGradient x1="49.9976804%" y1="100.001505%" x2="49.9976804%" y2="-0.0135056733%" id="linearGradient-2">
            <stop stop-color="#808080" stop-opacity="0.25" offset="0%"></stop>
            <stop stop-color="#808080" stop-opacity="0.12" offset="54%"></stop>
            <stop stop-color="#808080" stop-opacity="0.1" offset="100%"></stop>
        </linearGradient>
        <linearGradient x1="50.0031015%" y1="99.9982817%" x2="50.0031015%" y2="-0.00171833116%" id="linearGradient-3">
            <stop stop-color="#808080" stop-opacity="0.25" offset="0%"></stop>
            <stop stop-color="#808080" stop-opacity="0.12" offset="54%"></stop>
            <stop stop-color="#808080" stop-opacity="0.1" offset="100%"></stop>
        </linearGradient>
        <linearGradient x1="49.9948145%" y1="99.9986356%" x2="49.9948145%" y2="-0.00919346259%" id="linearGradient-4">
            <stop stop-color="#808080" stop-opacity="0.25" offset="0%"></stop>
            <stop stop-color="#808080" stop-opacity="0.12" offset="54%"></stop>
            <stop stop-color="#808080" stop-opacity="0.1" offset="100%"></stop>
        </linearGradient>
        <linearGradient x1="50.0067568%" y1="99.9710145%" x2="50.0067568%" y2="-0.0289855072%" id="linearGradient-5">
            <stop stop-color="#808080" stop-opacity="0.25" offset="0%"></stop>
            <stop stop-color="#808080" stop-opacity="0.12" offset="54%"></stop>
            <stop stop-color="#808080" stop-opacity="0.1" offset="100%"></stop>
        </linearGradient>
        <linearGradient x1="49.9964552%" y1="99.9928459%" x2="49.9964552%" y2="-0.00802762243%" id="linearGradient-6">
            <stop stop-color="#000000" stop-opacity="0.12" offset="0%"></stop>
            <stop stop-color="#000000" stop-opacity="0.09" offset="55%"></stop>
            <stop stop-color="#000000" stop-opacity="0.02" offset="100%"></stop>
        </linearGradient>
        <linearGradient x1="49.9922122%" y1="99.9530713%" x2="49.9922122%" y2="-0.0400799968%" id="linearGradient-7">
            <stop stop-color="#808080" stop-opacity="0.25" offset="0%"></stop>
            <stop stop-color="#808080" stop-opacity="0.12" offset="54%"></stop>
            <stop stop-color="#808080" stop-opacity="0.1" offset="100%"></stop>
        </linearGradient>
        <linearGradient x1="49.870761%" y1="92.649372%" x2="50.0723805%" y2="7.35129944%" id="linearGradient-8">
            <stop stop-color="#000000" stop-opacity="0.12" offset="0%"></stop>
            <stop stop-color="#000000" stop-opacity="0.09" offset="55%"></stop>
            <stop stop-color="#000000" stop-opacity="0.02" offset="100%"></stop>
        </linearGradient>
        <linearGradient x1="49.9970588%" y1="100.004697%" x2="49.9970588%" y2="0.00260124142%" id="linearGradient-9">
            <stop stop-color="#808080" stop-opacity="0.25" offset="0%"></stop>
            <stop stop-color="#808080" stop-opacity="0.12" offset="54%"></stop>
            <stop stop-color="#808080" stop-opacity="0.1" offset="100%"></stop>
        </linearGradient>
        <linearGradient x1="49.9957633%" y1="100.001834%" x2="49.9957633%" y2="0.00626914661%" id="linearGradient-10">
            <stop stop-color="#808080" stop-opacity="0.25" offset="0%"></stop>
            <stop stop-color="#808080" stop-opacity="0.12" offset="54%"></stop>
            <stop stop-color="#808080" stop-opacity="0.1" offset="100%"></stop>
        </linearGradient>
        <linearGradient x1="50.0096072%" y1="99.9912419%" x2="50.0096072%" y2="-0.0265487848%" id="linearGradient-11">
            <stop stop-color="#808080" stop-opacity="0.25" offset="0%"></stop>
            <stop stop-color="#808080" stop-opacity="0.12" offset="54%"></stop>
            <stop stop-color="#808080" stop-opacity="0.1" offset="100%"></stop>
        </linearGradient>
        <linearGradient x1="50%" y1="100%" x2="50%" y2="0%" id="linearGradient-12">
            <stop stop-color="#000000" stop-opacity="0.12" offset="0%"></stop>
            <stop stop-color="#000000" stop-opacity="0.09" offset="55%"></stop>
            <stop stop-color="#000000" stop-opacity="0.02" offset="100%"></stop>
        </linearGradient>
        <linearGradient x1="33.4478857%" y1="83.9072176%" x2="70.2468561%" y2="44.7229661%" id="linearGradient-13">
            <stop stop-color="#808080" stop-opacity="0.25" offset="0%"></stop>
            <stop stop-color="#808080" stop-opacity="0.12" offset="54%"></stop>
            <stop stop-color="#808080" stop-opacity="0.1" offset="100%"></stop>
        </linearGradient>
    </defs>
    <g id="Page-1" stroke="none" stroke-width="1" fill="none" fill-rule="evenodd">
        <g id="undraw_mail_2_tqip" transform="translate(1.719866, 0.216857)">
            <path d="M3.1410566,71 C3.1410566,71 3.03328302,70.6503497 2.8589434,70" id="Path" stroke="#69F0AE" stroke-width="9"></path>
            <path d="M2.248062,68 C-1.61228971,53.2615632 -13.6475039,-14.6643647 107,27.7401334" id="Path" stroke="#69F0AE" stroke-width="2" stroke-dasharray="3.04"></path>
            <line x1="108" y1="27.8412698" x2="109" y2="28.1587302" id="Path" stroke="#69F0AE" stroke-width="9"></line>
            <path d="M94,80.9208648 C94.0016196,74.2542819 88.9534692,68.6815626 82.3474013,68.0574089 C75.7413335,67.4332553 69.7476712,71.9627236 68.512287,78.5127381 L29,77.4359206 L29.433766,84.2562952 C29.433766,84.2562952 23.7995568,97.3180762 53.411213,100.798249 L53.411213,114 L87.6439023,114 L87.6439023,92.0501002 C91.5775391,89.7358674 93.996258,85.5008012 94,80.9208648 Z" id="Path" fill="url(#linearGradient-1)" fill-rule="nonzero"></path>
            <path d="M30.4198422,84.5276327 C30.4198422,84.5276327 25.0408117,97.026611 53.313867,100.361155 L53.313867,113 L86,113 L86,79.5274057 L30,78 L30.4198422,84.5276327 Z" id="Path" fill="#F6B9AD" fill-rule="nonzero"></path>
            <path d="M47.0697004,32.1473818 L47.0697004,32.1473818 C45.2686788,34.9984649 41.510576,35.8551815 38.6582246,34.0649054 L20.8435199,22.2881279 C18.0015302,20.4813435 17.147546,16.711216 18.9321121,13.849738 L18.9321121,13.849738 C20.732871,11.0025688 24.4861641,10.1462963 27.3371792,11.9322144 L45.151884,23.708992 C47.9961338,25.5136625 48.8530824,29.2842353 47.0697004,32.1473818 L47.0697004,32.1473818 Z" id="Path" fill="url(#linearGradient-2)" fill-rule="nonzero"></path>
            <path d="M46.1319243,31.3854382 L46.1319243,31.3854382 C44.4513204,33.9985347 40.9445373,34.7837888 38.2828539,33.1430362 L21.6534402,22.3486269 C19.0014871,20.6926474 18.2045563,17.2372459 19.8697068,14.6145618 L19.8697068,14.6145618 C21.5503107,12.0014653 25.0570938,11.2162112 27.7187772,12.8569638 L44.344974,23.652958 C46.9970818,25.3078313 47.7953892,28.7622619 46.1319243,31.3854382 Z" id="Path" fill="#F6B9AD" fill-rule="nonzero"></path>
            <circle id="Oval" fill="#F6B9AD" fill-rule="nonzero" cx="80.5" cy="81.5" r="12.5"></circle>
            <rect id="Rectangle" fill="url(#linearGradient-3)" fill-rule="nonzero" x="29" y="0" width="51" height="92" rx="12.25"></rect>
            <rect id="Rectangle" fill="#FFFFFF" fill-rule="nonzero" x="29" y="1" width="50" height="90" rx="13.64"></rect>
            <path d="M66.9302275,4 C66.6344556,5.96099965 64.9552215,7.41265001 62.9758363,7.41845998 L45.8869352,7.41845998 C43.9081486,7.41187174 42.2298016,5.96040938 41.9341212,4 L32.8801899,4 C32.3816778,4 31.9034402,4.19770785 31.5507909,4.55075045 C31.1981416,4.90379305 31,5.38279958 31,5.88228686 L31,87.1161327 C31,87.6156198 31.1973219,88.0947928 31.5496754,88.4481318 C31.9020288,88.8014709 32.3801003,89 32.8786126,89 L76.1198101,89 C76.6183222,89 77.0965598,88.8022922 77.4492091,88.4492495 C77.8018584,88.0962069 78,87.6172004 78,87.1177131 L78,5.88386728 C78,5.38438018 77.8026781,4.9052072 77.4503246,4.55186817 C77.0979712,4.19852915 76.6198997,4 76.1213874,4 L66.9302275,4 Z" id="Path" fill="#2081C3" fill-rule="nonzero"></path>
            <rect id="Rectangle" fill="#DBDBDB" fill-rule="nonzero" x="49" y="4" width="11" height="1" rx="0.5"></rect>
            <circle id="Oval" fill="#DBDBDB" fill-rule="nonzero" cx="62.5" cy="4.5" r="1"></circle>
            <path d="M88.1907266,83.832762 L88.1907266,83.832762 C84.6269156,84.6611891 82.1810391,82.3250882 81.3567992,78.7447596 L73.1680867,48.1850044 C72.3533218,44.5907837 74.5788268,41.0097593 78.149843,40.1689406 L78.149843,40.1689406 C81.7258969,39.3500366 85.2888211,41.5868475 86.12539,45.1760048 L92.807733,76.5197504 C93.6319729,80.1064271 91.7529587,83.0043349 88.1907266,83.832762 Z" id="Path" fill="url(#linearGradient-4)" fill-rule="nonzero"></path>
            <path d="M83.5135193,40.8988818 C86.6094591,40.8978553 89.1200463,43.4067783 89.1210728,46.5027181 C89.1210732,46.5039563 89.1210732,46.5051946 89.1210728,46.5064328 L89.1099355,80.1429097 C89.1089095,83.2415028 86.5972605,85.753153 83.4986673,85.7541804 C80.4027275,85.7552068 77.8921403,83.2462839 77.8911138,80.1503441 C77.8911134,80.1491058 77.8911134,80.1478676 77.8911138,80.1466294 L77.9022511,46.5101525 C77.9032771,43.4115593 80.4149261,40.8999091 83.5135193,40.8988818 Z" id="Rectangle" fill="#F6B9AD" fill-rule="nonzero" transform="translate(83.506093, 63.326531) rotate(-13.010000) translate(-83.506093, -63.326531) "></path>
            <rect id="Rectangle" fill="url(#linearGradient-5)" fill-rule="nonzero" x="46" y="109" width="47" height="11"></rect>
            <rect id="Rectangle" fill="#FF8976" fill-rule="nonzero" x="47" y="110" width="44" height="9"></rect>
            <path d="M64.4620798,28.6827594 L60.874903,25.9715898 L62.4386244,23.9307556 L59.8287734,21.8742227 L58.197812,23.9495941 L54.5089933,21.1630705 C54.2203709,20.9456432 53.8234173,20.9456432 53.5347949,21.1630705 L43.7568452,28.4708267 C43.3862432,28.7848012 43.039097,29.1443019 43.0359696,29.9669151 L43.0250236,29.9669151 L43,41.2260401 L43,41.2260401 L43,41.7268294 C42.9991735,42.0524202 43.1272112,42.3650067 43.3559501,42.595823 C43.5846889,42.8266392 43.8953916,42.9567778 44.2197067,42.9576094 L44.7013329,42.9576094 L53.9726369,42.9780178 L63.7271308,43 C64.0514458,43.0008297 64.3628076,42.8722884 64.5927194,42.6426498 C64.8226313,42.4130112 64.95226,42.1010862 64.9530884,41.7754955 L64.9796716,30.0359895 L65,30.0359895 C65,29.2118065 64.8326818,28.9967339 64.4620798,28.6827594 Z" id="Path" fill="url(#linearGradient-6)" fill-rule="nonzero"></path>
            <path d="M64,30.2066568 C64,29.4590152 63.8441882,29.2681945 63.510751,28.9788353 L54.4627615,22.1483944 C54.2001033,21.9505352 53.8388508,21.9505352 53.5761925,22.1483944 L44.687131,28.792707 C44.2525915,29.104294 44.005972,29.616522 44.0327216,30.1519131 L44.0233729,30.1519131 L44,40.3874079 L44,40.3874079 L44,40.8425621 C43.999139,41.458728 44.495575,41.9591709 45.1093809,41.9608963 L45.547212,41.9608963 L53.9766288,41.9796655 L62.8438767,42 C63.4576844,42.0008643 63.9562121,41.5025211 63.9579308,40.886357 L63.9813026,30.2144773 L64,30.2066568 Z" id="Path" fill="url(#linearGradient-7)" fill-rule="nonzero"></path>
            <path d="M44.2592746,30.4991264 L64.2021803,30.4991264 L64.2021803,41.4880836 C64.2021803,41.6640526 64.1323836,41.8328142 64.0081429,41.9572427 C63.8839022,42.0816711 63.7153954,42.1515734 63.539692,42.1515734 L44.9962956,42.1515734 C44.8025174,42.1515734 44.6166756,42.074414 44.4796533,41.9371846 C44.342631,41.7999551 44.2656523,41.6138324 44.2656516,41.4197613 L44.2656142,30.4991264 L44.2592746,30.4991264 Z" id="Path" fill="#2081C3" fill-rule="nonzero" transform="translate(54.230727, 36.325350) rotate(0.130000) translate(-54.230727, -36.325350) "></path>
            <path d="M44.2592746,30.4991264 L64.2021803,30.4991264 L64.2021803,41.4880836 C64.2021803,41.6640526 64.1323836,41.8328142 64.0081429,41.9572427 C63.8839022,42.0816711 63.7153954,42.1515734 63.539692,42.1515734 L44.9962956,42.1515734 C44.8025174,42.1515734 44.6166756,42.074414 44.4796533,41.9371846 C44.342631,41.7999551 44.2656523,41.6138324 44.2656516,41.4197613 L44.2656142,30.4991264 L44.2592746,30.4991264 Z" id="Path" fill="#FFFFFF" fill-rule="nonzero" opacity="0.2" transform="translate(54.230727, 36.325350) rotate(0.130000) translate(-54.230727, -36.325350) "></path>
            <path d="M44.0217198,30 L44,40.3651182 C43.9991795,40.7874762 44.1580597,41.1928793 44.4416916,41.492143 C44.7253236,41.7914066 45.1104735,41.9600165 45.5124124,41.9608802 L62,42" id="Path" fill="#F5F5F5" fill-rule="nonzero"></path>
            <path d="M64,30 L63.978317,40.4055572 C63.9774963,40.8292965 63.8172864,41.2353363 63.5329319,41.5343519 C63.2485774,41.8333675 62.8633712,42.000865 62.4620547,42 L46,41.9607489" id="Path" fill="#FFFFFF" fill-rule="nonzero"></path>
            <path d="M53.5537458,22.1454674 L44.6579089,28.613906 C44.2235998,28.9150239 43.9759991,29.4144937 44.0018409,29.9373517 L64,30 C64,29.2717133 63.8411458,29.080636 63.510729,28.8049834 L54.4480951,22.1485998 C54.183839,21.9516332 53.8194146,21.9503568 53.5537458,22.1454674 L53.5537458,22.1454674 Z" id="Path" fill="#2081C3" fill-rule="nonzero"></path>
            <path d="M53.5537458,22.1454674 L44.6579089,28.613906 C44.2235998,28.9150239 43.9759991,29.4144937 44.0018409,29.9373517 L64,30 C64,29.2717133 63.8411458,29.080636 63.510729,28.8049834 L54.4480951,22.1485998 C54.183839,21.9516332 53.8194146,21.9503568 53.5537458,22.1454674 L53.5537458,22.1454674 Z" id="Path" fill="#000000" fill-rule="nonzero" opacity="0.2"></path>
            <polygon id="Path" fill="url(#linearGradient-8)" fill-rule="nonzero" points="62 24.9167893 59.6488541 23 53.9662748 30.4841472 50.9127182 28.0215385 49 30.5499666 53.444484 34.0801338 53.444484 34.0801338 54.5467284 35"></polygon>
            <polygon id="Path" fill="#FFFFFF" fill-rule="nonzero" points="62 24.6166134 59.7925434 23 53.9427833 30.2869843 50.693983 27.9079039 49 30.0165301 53.3525286 33.2008612 53.3525286 33.2008612 54.4690538 34"></polygon>
            <path d="M43.0830066,49.1721044 L43.0830066,49.1721044 C41.3106313,51.998496 37.6131312,52.8477406 34.8065727,51.0730418 L19.7974957,41.1942681 C17.0014878,39.4026327 16.1613726,35.6649524 17.9169934,32.8278956 L17.9169934,32.8278956 C19.6893687,30.001504 23.3868688,29.1522594 26.1934273,30.9269582 L41.2025043,40.8057319 C43.9985122,42.5973673 44.8386274,46.3350476 43.0830066,49.1721044 Z" id="Path" fill="url(#linearGradient-9)" fill-rule="nonzero"></path>
            <path d="M42.1509525,48.4290262 L42.1509525,48.4290262 C40.5102702,50.9985591 37.0867883,51.7707221 34.4883314,50.1573229 L20.5904095,41.1761024 C18.0014518,39.5477301 17.2234515,36.1499345 18.8490475,33.5709738 L18.8490475,33.5709738 C20.4897298,31.0014409 23.9132117,30.2292779 26.5116686,31.8426771 L40.4095905,40.8238976 C42.9985482,42.4522699 43.7765485,45.8500655 42.1509525,48.4290262 Z" id="Path" fill="#F6B9AD" fill-rule="nonzero"></path>
            <path d="M40.0798647,65.1577052 L40.0798647,65.1577052 C38.2999239,67.9983163 34.5850872,68.8520552 31.765597,67.0684795 L19.8111324,59.2487291 C17.0016653,57.4490569 16.1572866,53.69304 17.9213075,50.8422948 L17.9213075,50.8422948 C19.7012483,48.0016837 23.416085,47.1479448 26.2355752,48.9315205 L38.1884369,56.7528916 C40.9974928,58.5519652 41.842502,62.3068771 40.0798647,65.1577052 Z" id="Path" fill="url(#linearGradient-10)" fill-rule="nonzero"></path>
            <path d="M37.098995,81.2523822 L37.098995,81.2523822 C35.3544225,83.9982232 31.7127083,84.8236421 28.9487349,83.0996933 L21.7561382,77.8682323 C19.0017823,76.129053 18.1738038,72.4985969 19.9030985,69.743168 L19.9030985,69.743168 C21.6497176,66.9995157 25.2910015,66.1769685 28.0533586,67.9020663 L35.2459554,73.1319749 C37.9974663,74.8709644 38.8251219,78.497924 37.098995,81.2523822 L37.098995,81.2523822 Z" id="Path" fill="url(#linearGradient-11)" fill-rule="nonzero"></path>
            <path d="M36.144535,81.4153535 L36.144535,81.4153535 C34.4914518,83.9985514 31.0420939,84.7748209 28.4239968,83.1528414 L21.6099889,78.2302201 C19.0014628,76.5931879 18.217582,73.1773225 19.855465,70.5846465 L19.855465,70.5846465 C21.5085482,68.0014486 24.9579061,67.2251791 27.5760032,68.8471586 L34.3900111,73.7697799 C36.9985372,75.4068121 37.782418,78.8226775 36.144535,81.4153535 Z" id="Path" fill="#F6B9AD" fill-rule="nonzero"></path>
            <rect id="Rectangle" fill="url(#linearGradient-12)" fill-rule="nonzero" x="38" y="51" width="32" height="10"></rect>
            <rect id="Rectangle" fill="#69F0AE" fill-rule="nonzero" x="39" y="52" width="30" height="7"></rect>
            <polygon id="Path" fill="url(#linearGradient-13)" fill-rule="nonzero" points="125.431722 33.9102852 126 34 125.911355 33.9150913 125.958843 33.9150913 125.884445 33.8894585 115.581047 24 113.079992 27.9939122 111 31.6369753 111.964014 31.7891701 111.536619 33.7628965"></polygon>
            <polygon id="Path" fill="#2081C3" fill-rule="nonzero" points="113.909091 28.6582214 112 31.8216367 126 34 116.982727 28"></polygon>
            <polygon id="Path" fill="#000000" fill-rule="nonzero" opacity="0.2" points="114.5 26.53585 110 33.9171523 143 39 121.745 25"></polygon>
            <polygon id="Path" fill="#2081C3" fill-rule="nonzero" points="117.323684 18 140 39 112 26.2637211"></polygon>
            <polygon id="Path" fill="#2081C3" fill-rule="nonzero" points="110 38.4828694 140 39 111.994794 30"></polygon>
            <path d="M39.1521374,64.4431785 L39.1521374,64.4431785 C37.5205173,66.998567 34.1159448,67.7664795 31.5318403,66.1619615 L20.5761016,59.1256452 C18.0014438,57.5062365 17.2277407,54.1271445 18.8443579,51.56238 L18.8443579,51.56238 C20.4734105,49.0042584 23.8785242,48.2327611 26.464655,49.8358478 L37.4203937,56.8721641 C40,58.4918849 40.7740561,61.8768022 39.1521374,64.4431785 L39.1521374,64.4431785 Z" id="Path" fill="#F6B9AD" fill-rule="nonzero"></path>
        </g>
    </g>
</svg>