<?xml version="1.0" encoding="UTF-8"?>
<svg width="30px" height="22px" viewBox="0 0 30 22" version="1.1" xmlns="http://www.w3.org/2000/svg" xmlns:xlink="http://www.w3.org/1999/xlink">
    <title>Group</title>
    <g id="Page-1" stroke="none" stroke-width="1" fill="none" fill-rule="evenodd">
        <g id="iPhone-8" transform="translate(-127.000000, -299.000000)">
            <g id="Group" transform="translate(127.000000, 299.000000)">
                <path d="M22,11.0672247 C22,4.9549608 17.0751367,0 11,0 C4.92486328,0 0,4.9549608 0,11.0672247 C0,16.5911965 4.02254102,21.169742 9.28125,22 L9.28125,14.2663444 L6.48828125,14.2663444 L6.48828125,11.0672247 L9.28125,11.0672247 L9.28125,8.62897679 C9.28125,5.85525359 10.9234727,4.32313467 13.4361133,4.32313467 C14.6396035,4.32313467 15.8984375,4.5392914 15.8984375,4.5392914 L15.8984375,7.26286624 L14.5113633,7.26286624 C13.1448926,7.26286624 12.71875,8.11597202 12.71875,8.99119063 L12.71875,11.0672247 L15.7695312,11.0672247 L15.2818359,14.2663444 L12.71875,14.2663444 L12.71875,22 C17.977459,21.169742 22,16.5911965 22,11.0672247" id="Fill-1" fill="#FFFFFF"></path>
                <rect id="Rectangle" x="0" y="0" width="30" height="22"></rect>
            </g>
        </g>
    </g>
</svg>