<?xml version="1.0" encoding="UTF-8"?>
<svg width="42px" height="50px" viewBox="0 0 42 50" version="1.1" xmlns="http://www.w3.org/2000/svg" xmlns:xlink="http://www.w3.org/1999/xlink">
    <title>replay_black_24dp</title>
    <g id="Page-1" stroke="none" stroke-width="1" fill="none" fill-rule="evenodd">
        <g id="iPhone-11-Pro-Copy-4" transform="translate(-167.000000, -91.000000)" fill="#F96519" fill-rule="nonzero">
            <g id="replay_black_24dp" transform="translate(167.000000, 91.000000)">
                <path d="M20.5427988,8.52813162 L20.5427988,1.29944 C20.5427988,0.133522 19.1436972,-0.436482357 18.3405092,0.392614889 L8.49497944,10.2122354 C7.97679367,10.7304212 7.97679367,11.5336091 8.49497944,12.0517949 L18.3146,21.8714154 C19.1436972,22.6746034 20.5427988,22.104599 20.5427988,20.938681 L20.5427988,13.7099894 C30.2069636,13.7099894 37.8502038,22.5709662 35.7256421,32.5978611 C34.5079056,38.4792697 29.7405964,43.2206695 23.8850971,44.4384061 C14.6354809,46.3816028 6.39632704,40.033827 5.15268117,31.4578523 C4.97131615,30.2142065 3.88312601,29.2555628 2.61357085,29.2555628 C1.05901351,29.2555628 -0.184632357,30.6287551 0.022641955,32.1833124 C1.62901787,43.5574903 12.4591007,51.9780092 24.7141943,49.5943546 C32.7978925,48.013888 39.301124,41.5106565 40.8815906,33.4269583 C43.4466102,20.1354931 33.3419876,8.52813162 20.5427988,8.52813162 Z" id="Path"></path>
            </g>
        </g>
    </g>
</svg>