<svg id="Layer_1" data-name="Layer 1" xmlns="http://www.w3.org/2000/svg" viewBox="0 0 50 50"><defs><style>.cls-1{fill:#2081c3;}.cls-2{fill:#fff;}</style></defs><circle class="cls-1" cx="25" cy="25" r="25"/><path class="cls-2" d="M18.09,23.88A21,21,0,0,0,27.24,33L30.3,30a1.38,1.38,0,0,1,1.41-.34,15.71,15.71,0,0,0,5,.79,1.4,1.4,0,0,1,1.39,1.39v4.85a1.4,1.4,0,0,1-1.39,1.39A23.61,23.61,0,0,1,13.06,14.45a1.39,1.39,0,0,1,1.39-1.39h4.86a1.39,1.39,0,0,1,1.39,1.39,16,16,0,0,0,.79,5,1.39,1.39,0,0,1-.35,1.41Z"/></svg>