<?xml version="1.0" encoding="UTF-8"?>
<svg width="25px" height="25px" viewBox="0 0 25 25" version="1.1" xmlns="http://www.w3.org/2000/svg" xmlns:xlink="http://www.w3.org/1999/xlink">
    <title>add-to-calendar</title>
    <defs>
        <filter color-interpolation-filters="auto" id="filter-1">
            <feColorMatrix in="SourceGraphic" type="matrix" values="0 0 0 0 0.125490 0 0 0 0 0.505882 0 0 0 0 0.764706 0 0 0 1.000000 0"></feColorMatrix>
        </filter>
    </defs>
    <g id="Page-1" stroke="none" stroke-width="1" fill="none" fill-rule="evenodd">
        <g id="Boarding-Pass_Updated" transform="translate(-335.000000, -399.000000)">
            <g id="add-to-calendar" transform="translate(15.000000, 341.800000)" filter="url(#filter-1)">
                <g transform="translate(320.000000, 57.200000)">
                    <path d="M9.375,19.4444444 L2.08333333,19.4444444 C0.927083333,19.4444444 0,18.5694444 0,17.5 L0.0104166667,3.88888889 C0.0104166667,2.81944444 0.927083333,1.94444444 2.08333333,1.94444444 L3.125,1.94444444 L3.125,0 L5.20833333,0 L5.20833333,1.94444444 L13.5416667,1.94444444 L13.5416667,0 L15.625,0 L15.625,1.94444444 L16.6666667,1.94444444 C17.8125,1.94444444 18.75,2.81944444 18.75,3.88888889 L18.75,9.72222222 L16.6666667,9.72222222 L16.6666667,7.77777778 L2.08333333,7.77777778 L2.08333333,17.5 L9.375,17.5 L9.375,19.4444444 Z" id="Shape" fill="#000000" fill-rule="nonzero"></path>
                    <path d="M17.7083333,11.1111111 C21.7354096,11.1111111 25,14.2202448 25,18.0555556 C25,21.8908663 21.7354096,25 17.7083333,25 C13.6812571,25 10.4166667,21.8908663 10.4166667,18.0555556 C10.4166667,14.2202448 13.6812571,11.1111111 17.7083333,11.1111111 Z M18.75,13.0952381 L16.6666667,13.0952381 L16.6666667,17.0634921 L12.5,17.0634921 L12.5,19.047619 L16.6666667,19.047619 L16.6666667,23.015873 L18.75,23.015873 L18.75,19.047619 L22.9166667,19.047619 L22.9166667,17.0634921 L18.75,17.0634921 L18.75,13.0952381 Z" id="Combined-Shape" fill="#000000" fill-rule="nonzero"></path>
                </g>
            </g>
        </g>
    </g>
</svg>