<?xml version="1.0" encoding="UTF-8"?>
<svg width="21px" height="21px" viewBox="0 0 21 21" version="1.1" xmlns="http://www.w3.org/2000/svg" xmlns:xlink="http://www.w3.org/1999/xlink">
    <title>Group</title>
    <g id="Symbols" stroke="none" stroke-width="1" fill="none" fill-rule="evenodd">
        <g id="Group">
            <circle id="Oval" stroke="#2081C3" fill="#FFFFFF" cx="10.5" cy="10.5" r="10"></circle>
            <path d="M10.032,16.252 C10.452,16.252 10.8673333,16.189 11.278,16.063 C11.6886667,15.937 12.0596667,15.748 12.391,15.496 C12.7223333,15.244 12.9883333,14.9266667 13.189,14.544 C13.3896667,14.1613333 13.49,13.7133333 13.49,13.2 C13.49,12.584 13.301,12.0636667 12.923,11.639 C12.545,11.2143333 12.0526667,10.9413333 11.446,10.82 L11.446,10.82 L11.446,10.792 C11.9873333,10.6613333 12.419,10.3883333 12.741,9.973 C13.063,9.55766667 13.224,9.084 13.224,8.552 C13.224,8.104 13.14,7.712 12.972,7.376 C12.804,7.04 12.573,6.75766667 12.279,6.529 C11.985,6.30033333 11.6443333,6.12766667 11.257,6.011 C10.8696667,5.89433333 10.4613333,5.836 10.032,5.836 C9.64,5.836 9.26666667,5.892 8.912,6.004 C8.55733333,6.116 8.23766667,6.27233333 7.953,6.473 C7.66833333,6.67366667 7.42566667,6.91166667 7.225,7.187 C7.02433333,7.46233333 6.882,7.768 6.798,8.104 L6.798,8.104 L8.38,8.51 C8.48266667,8.12733333 8.66933333,7.81933333 8.94,7.586 C9.21066667,7.35266667 9.55133333,7.236 9.962,7.236 C10.1673333,7.236 10.3656667,7.26866667 10.557,7.334 C10.7483333,7.39933333 10.9163333,7.49266667 11.061,7.614 C11.2056667,7.73533333 11.32,7.88466667 11.404,8.062 C11.488,8.23933333 11.53,8.44 11.53,8.664 C11.53,8.972 11.467,9.22166667 11.341,9.413 C11.215,9.60433333 11.0493333,9.756 10.844,9.868 C10.6386667,9.98 10.4123333,10.057 10.165,10.099 C9.91766667,10.141 9.668,10.162 9.416,10.162 L9.416,10.162 L8.968,10.162 L8.968,11.506 L9.388,11.506 C9.64933333,11.506 9.92233333,11.534 10.207,11.59 C10.4916667,11.646 10.7506667,11.737 10.984,11.863 C11.2173333,11.989 11.411,12.1616667 11.565,12.381 C11.719,12.6003333 11.796,12.8686667 11.796,13.186 C11.796,13.4846667 11.7423333,13.7366667 11.635,13.942 C11.5276667,14.1473333 11.3876667,14.3153333 11.215,14.446 C11.0423333,14.5766667 10.8463333,14.6723333 10.627,14.733 C10.4076667,14.7936667 10.1906667,14.824 9.976,14.824 C9.444,14.824 9.01233333,14.6886667 8.681,14.418 C8.34966667,14.1473333 8.12333333,13.816 8.002,13.424 L8.002,13.424 L6.434,13.914 C6.56466667,14.3246667 6.749,14.6793333 6.987,14.978 C7.225,15.2766667 7.50033333,15.5193333 7.813,15.706 C8.12566667,15.8926667 8.46866667,16.0303333 8.842,16.119 C9.21533333,16.2076667 9.612,16.252 10.032,16.252 Z" id="3" fill="#2081C3" fill-rule="nonzero"></path>
        </g>
    </g>
</svg>