<?xml version="1.0" encoding="UTF-8"?>
<svg width="10px" height="16px" viewBox="0 0 10 16" version="1.1" xmlns="http://www.w3.org/2000/svg" xmlns:xlink="http://www.w3.org/1999/xlink">
    <title>􀆉</title>
    <g id="Symbols" stroke="none" stroke-width="1" fill="none" fill-rule="evenodd">
        <g id="Progress-Cells/Individual/Process-with-Status" transform="translate(-128.000000, -72.000000)" fill="#2081C3" fill-rule="nonzero">
            <g id="Chevrons/Grey" transform="translate(128.500000, 72.000000)">
                <path d="M7.9510284,15.6376102 C8.54162586,15.6376102 9,15.179236 9,14.5974535 C9,14.3065622 8.88540646,14.0421156 8.68266405,13.8393732 L2.5122429,7.80999021 L8.68266405,1.79823702 C8.88540646,1.59549461 9,1.3222331 9,1.04015671 C9,0.458374143 8.54162586,0 7.9510284,0 C7.66895201,0 7.42213516,0.105778648 7.22820764,0.29970617 L0.370225269,6.99902057 C0.123408423,7.22820764 0,7.51028404 0,7.81880509 C0,8.12732615 0.123408423,8.39177277 0.361410382,8.62977473 L7.21939275,15.337904 C7.42213516,15.5318315 7.66895201,15.6376102 7.9510284,15.6376102 Z" id="􀆉" transform="translate(4.500000, 7.818805) scale(-1, 1) translate(-4.500000, -7.818805) "></path>
            </g>
        </g>
    </g>
</svg>