<svg id="Layer_2" data-name="Layer 2" xmlns="http://www.w3.org/2000/svg" viewBox="0 0 194.98 61.42"><defs><style>.cls-1{fill:#fff;}</style></defs><path class="cls-1" d="M59.08,42.24a1.75,1.75,0,0,0-2.47,0l-15,15L3,18.71A1.75,1.75,0,1,0,.52,21.19l39.9,39.72a1.75,1.75,0,0,0,2.47,0L59.08,44.72A1.76,1.76,0,0,0,59.08,42.24Z"/><path class="cls-1" d="M78.76,19.62a1.75,1.75,0,0,0-1.62-1.09h0a1.73,1.73,0,0,0-1.62,1.09L59.52,59a1.74,1.74,0,0,0,1,2.28,1.76,1.76,0,0,0,2.28-1L67,49.84H87.33l4.28,10.49a1.75,1.75,0,0,0,1.62,1.09,1.69,1.69,0,0,0,.66-.13,1.74,1.74,0,0,0,1-2.28ZM68.44,46.34l8.7-21.42L85.9,46.34Z"/><path class="cls-1" d="M161.47,57.92H141.38V20.28a1.75,1.75,0,0,0-3.5,0V59.67a1.76,1.76,0,0,0,1.75,1.75h21.84a1.75,1.75,0,0,0,0-3.5Z"/><path class="cls-1" d="M193.23,18.53H159.56a1.75,1.75,0,0,0,0,3.5h15.09V59.67a1.75,1.75,0,0,0,3.5,0V22h15.08a1.75,1.75,0,0,0,0-3.5Z"/><path class="cls-1" d="M88,15.29a1.72,1.72,0,0,0,1.24-.52L100.91,3A1.75,1.75,0,0,0,98.43.52L86.71,12.3a1.75,1.75,0,0,0,0,2.48A1.73,1.73,0,0,0,88,15.29Z"/><path class="cls-1" d="M128.67,18.53a1.75,1.75,0,0,0-1.75,1.75V46.63c0,6.65-4.73,11.29-11.5,11.29-5.56,0-11.5-3-11.5-11.29V20.28a1.75,1.75,0,0,0-3.5,0V46.63c0,9,5.89,14.79,15,14.79,8.69,0,15-6.22,15-14.79V20.28A1.75,1.75,0,0,0,128.67,18.53Z"/></svg>