<?xml version="1.0" encoding="UTF-8"?>
<svg width="21px" height="21px" viewBox="0 0 21 21" version="1.1" xmlns="http://www.w3.org/2000/svg" xmlns:xlink="http://www.w3.org/1999/xlink">
    <title>Group</title>
    <g id="Symbols" stroke="none" stroke-width="1" fill="none" fill-rule="evenodd">
        <g id="Group">
            <circle id="Oval" stroke="#C3C3C3" fill="#FFFFFF" cx="10.5" cy="10.5" r="10"></circle>
            <path d="M13.56,16 L13.56,14.46 L9.094,14.46 L11.95,11.73 C12.174,11.5246667 12.3816667,11.3123333 12.573,11.093 C12.7643333,10.8736667 12.9323333,10.6426667 13.077,10.4 C13.2216667,10.1573333 13.336,9.89833333 13.42,9.623 C13.504,9.34766667 13.546,9.05133333 13.546,8.734 C13.546,8.258 13.455,7.84033333 13.273,7.481 C13.091,7.12166667 12.846,6.81833333 12.538,6.571 C12.23,6.32366667 11.8776667,6.13933333 11.481,6.018 C11.0843333,5.89666667 10.6713333,5.836 10.242,5.836 C9.78466667,5.836 9.36233333,5.90833333 8.975,6.053 C8.58766667,6.19766667 8.24933333,6.396 7.96,6.648 C7.67066667,6.9 7.43266667,7.19866667 7.246,7.544 C7.05933333,7.88933333 6.94266667,8.26733333 6.896,8.678 L6.896,8.678 L8.534,8.93 C8.59933333,8.44466667 8.77666667,8.041 9.066,7.719 C9.35533333,7.397 9.738,7.236 10.214,7.236 C10.662,7.236 11.0376667,7.37366667 11.341,7.649 C11.6443333,7.92433333 11.796,8.29533333 11.796,8.762 C11.796,9.154 11.705,9.50166667 11.523,9.805 C11.341,10.1083333 11.096,10.4093333 10.788,10.708 L10.788,10.708 L6.966,14.46 L6.966,16 L13.56,16 Z" id="2" fill="#C3C3C3" fill-rule="nonzero"></path>
        </g>
    </g>
</svg>