<?xml version="1.0" encoding="UTF-8"?>
<svg width="197px" height="180px" viewBox="0 0 197 180" version="1.1" xmlns="http://www.w3.org/2000/svg" xmlns:xlink="http://www.w3.org/1999/xlink">
    <title>undraw_Credit_card_re_blml</title>
    <g id="Page-1" stroke="none" stroke-width="1" fill="none" fill-rule="evenodd">
        <g id="Welcome---2" transform="translate(-89.000000, -103.000000)" fill-rule="nonzero">
            <g id="undraw_Credit_card_re_blml" transform="translate(89.000000, 103.000000)">
                <polygon id="Rectangle" fill="#3F3D56" transform="translate(89.402481, 48.155623) rotate(-16.243920) translate(-89.402481, -48.155623) " points="3.45071773 40.3746872 175.362705 40.2816239 175.354245 55.9365588 3.44225743 56.0296221"></polygon>
                <path d="M24.5073204,134 L0.0980071947,50.2105733 C-0.278830371,48.9169596 0.464207871,47.5627465 1.75763396,47.1858456 L163.350899,0.097497058 C164.644146,-0.278090826 165.997263,0.464502029 166.375195,1.75723549 L188,75.9886633 L187.330876,76.1836861 L165.706071,1.95225836 C165.43551,1.02933785 164.469511,0.499164687 163.54581,0.76663282 L1.95258715,47.8549814 C1.02871141,48.1242275 0.497975425,49.0915275 0.767130994,50.0155504 L25.1764442,133.804977 L24.5073204,134 Z" id="Path" fill="#3F3D56"></path>
                <path d="M151.451069,74 C150.429703,73.998943 149.531177,73.3249847 149.244289,72.3447574 L145.091679,58.0925002 C144.738311,56.8745223 145.437523,55.6003472 146.654711,55.2441865 L160.907352,51.0916662 C162.125434,50.738302 163.399685,51.4376432 163.755722,52.6549234 L167.908321,66.9071806 C168.261689,68.1251577 167.562476,69.3993316 166.345289,69.7554908 L152.092648,73.9080146 C151.884231,73.9689396 151.668209,74 151.451069,74 Z" id="Path" fill="#FC8D55"></path>
                <path d="M23.8411481,50.8834517 C23.8008983,50.7453573 23.753034,50.6095977 23.6977752,50.476796 C22.9196107,48.5879251 20.8432115,47.5890826 18.8819225,48.1601518 C16.9206334,48.7312209 15.7048533,50.6886483 16.0621285,52.7000696 C16.0863622,52.8417846 16.1186326,52.9820071 16.1587836,53.1200583 C16.6586901,54.8265562 18.2235239,55.9992943 20.0015857,56 C20.3795449,56.0008188 20.7556346,55.9469279 21.1181526,55.8399853 C23.2367506,55.2208874 24.4547477,53.0038277 23.8411481,50.8834517 Z M20.9314948,55.2000025 C19.1646912,55.7128207 17.3161405,54.6989976 16.7986874,52.9333967 C16.7596678,52.7952711 16.7284807,52.6550515 16.7052752,52.5134079 C16.4466594,50.8578435 17.4575853,49.2677259 19.066359,48.7995836 C20.6751328,48.3314413 22.3812831,49.1309081 23.0511856,50.6667909 C23.111548,50.7971515 23.1617135,50.9319964 23.201231,51.0701134 C23.7133726,52.8372249 22.6977093,54.6852851 20.9315015,55.2000225 L20.9314948,55.2000025 Z" id="Shape" fill="#FC8D55"></path>
                <path d="M14.5335751,52.840512 C14.0799981,51.4070356 14.6642547,49.8665799 15.9886004,49.0041802 C14.326038,48.9296196 12.803959,49.8586579 12.2319059,51.297171 C11.6598527,52.7356841 12.170757,54.3493959 13.4928859,55.2800275 C14.8150148,56.210659 16.6411371,56.2419539 18,55.3572673 C16.3795618,55.2844442 14.9876402,54.2738566 14.5335751,52.840512 L14.5335751,52.840512 Z" id="Path" fill="#FC8D55"></path>
                <path d="M121.922641,69.4891469 C121.774451,68.9688432 121.420449,68.527435 120.938661,68.2622121 C120.456873,67.9969892 119.886847,67.9297232 119.354223,68.0752401 L96.4650573,74.3267111 L94,75 L109.480034,75 L111.945088,74.3267111 L120.478086,71.9971313 C121.585658,71.6933253 122.232041,70.5710981 121.922641,69.4891469 L121.922641,69.4891469 Z" id="Path" fill="#CCCCCC"></path>
                <path d="M104.921306,64.6562673 C104.606829,63.4506369 103.44247,62.7470224 102.320308,63.0845001 L67.5412669,73.535439 C66.5371883,73.8410727 65.8898003,74.8868475 66.0155778,76 L75.0193402,76 L77.5189124,75.2497531 L103.458507,67.4546881 C104.580952,67.1150162 105.235453,65.8629172 104.921306,64.6562673 Z" id="Path" fill="#CCCCCC"></path>
                <path d="M194.577467,75 L27.4225329,75 C26.0852272,75.001518 25,76.0975316 25,77.45 L25,177.55 C25,178.902494 26.0852019,179.998544 27.4225329,180 L194.577467,180 C195.914774,179.998484 197,178.902469 197,177.55 L197,77.45 C197,76.0975564 195.914748,75.0015777 194.577467,75 L194.577467,75 Z M196.307848,177.55 C196.307848,178.516353 195.532987,179.3 194.577467,179.3 L27.4225329,179.3 C26.4670125,179.3 25.6921523,178.516354 25.6921523,177.55 L25.6921523,77.45 C25.6921523,76.4836721 26.4670386,75.7 27.4225329,75.7 L194.577467,75.7 C195.532961,75.7 196.307848,76.4836721 196.307848,77.45 L196.307848,177.55 Z" id="Shape" fill="#3F3D56"></path>
                <path d="M43,89 C40.790861,89 39,87.209139 39,85 C39,82.790861 40.790861,81 43,81 C45.209139,81 47,82.790861 47,85 C46.9974742,87.2080919 45.2080919,88.9974742 43,89 L43,89 Z M43,81.6666667 C41.1590508,81.6666667 39.6666667,83.1590508 39.6666667,85 C39.6666667,86.8409492 41.1590508,88.3333333 43,88.3333333 C44.8409492,88.3333333 46.3333333,86.8409492 46.3333333,85 C46.3312575,83.1599113 44.8400887,81.6687425 43,81.6666667 L43,81.6666667 Z" id="Shape" fill="#FC8D55"></path>
                <path d="M36.4591083,84.5 C36.4593595,83.0070871 37.4796381,81.6786172 39,81.1915903 C37.4400629,80.6920559 35.7114139,81.1921553 34.7334631,82.4259023 C33.7555123,83.6596494 33.7555123,85.3403506 34.7334631,86.5740977 C35.7114139,87.8078447 37.4400629,88.3079441 39,87.8084097 C37.4796376,87.3213816 36.4593591,85.9929106 36.4591083,84.5 L36.4591083,84.5 Z" id="Path" fill="#FC8D55"></path>
                <path d="M60,134 C58.3439309,133.998106 57.0018939,132.656069 57,131 L57,122 C57,120.343146 58.3431458,119 60,119 C61.6568542,119 63,120.343146 63,122 L63,131 C62.9981043,132.656068 61.6560684,133.998104 60,134 Z" id="Path" fill="#FC8D55"></path>
                <path d="M69,134 C67.3439309,133.998106 66.0018939,132.656069 66,131 L66,122 C66,120.343146 67.3431458,119 69,119 C70.6568542,119 72,120.343146 72,122 L72,131 C71.9981043,132.656068 70.6560684,133.998104 69,134 Z" id="Path" fill="#FC8D55"></path>
                <path d="M77,134 C75.3439309,133.998106 74.0018939,132.656069 74,131 L74,122 C74,120.343146 75.3431458,119 77,119 C78.6568542,119 80,120.343146 80,122 L80,131 C79.9981043,132.656068 78.6560684,133.998104 77,134 Z" id="Path" fill="#FC8D55"></path>
                <path d="M89,134 C87.3439309,133.998106 86.0018939,132.656069 86,131 L86,122 C86,120.343146 87.3431458,119 89,119 C90.6568542,119 92,120.343146 92,122 L92,131 C91.9981043,132.656068 90.6560684,133.998104 89,134 Z" id="Path" fill="#FC8D55"></path>
                <path d="M99,134 C97.3439309,133.998106 96.0018939,132.656069 96,131 L96,122 C96,120.343146 97.3431458,119 99,119 C100.656854,119 102,120.343146 102,122 L102,131 C101.998104,132.656068 100.656068,133.998104 99,134 Z" id="Path" fill="#FC8D55"></path>
                <path d="M107,134 C105.343931,133.998106 104.001894,132.656069 104,131 L104,122 C104,120.343146 105.343146,119 107,119 C108.656854,119 110,120.343146 110,122 L110,131 C109.998104,132.656068 108.656068,133.998104 107,134 Z" id="Path" fill="#FC8D55"></path>
                <path d="M119,134 C117.343931,133.998106 116.001894,132.656069 116,131 L116,122 C116,120.343146 117.343146,119 119,119 C120.656854,119 122,120.343146 122,122 L122,131 C121.998104,132.656068 120.656068,133.998104 119,134 Z" id="Path" fill="#FC8D55"></path>
                <path d="M128,134 C126.343931,133.998106 125.001894,132.656069 125,131 L125,122 C125,120.343146 126.343146,119 128,119 C129.656854,119 131,120.343146 131,122 L131,131 C130.998104,132.656068 129.656068,133.998104 128,134 Z" id="Path" fill="#FC8D55"></path>
                <path d="M136,134 C134.343931,133.998106 133.001894,132.656069 133,131 L133,122 C133,120.343146 134.343146,119 136,119 C137.656854,119 139,120.343146 139,122 L139,131 C138.998104,132.656068 137.656068,133.998104 136,134 Z" id="Path" fill="#FC8D55"></path>
                <path d="M148,134 C146.343931,133.998106 145.001894,132.656069 145,131 L145,122 C145,120.343146 146.343146,119 148,119 C149.656854,119 151,120.343146 151,122 L151,131 C150.998104,132.656068 149.656068,133.998104 148,134 Z" id="Path" fill="#FC8D55"></path>
                <path d="M157,134 C155.343931,133.998106 154.001894,132.656069 154,131 L154,122 C154,120.343146 155.343146,119 157,119 C158.656854,119 160,120.343146 160,122 L160,131 C159.998104,132.656068 158.656068,133.998104 157,134 Z" id="Path" fill="#FC8D55"></path>
                <path d="M166,134 C164.343931,133.998106 163.001894,132.656069 163,131 L163,122 C163,120.343146 164.343146,119 166,119 C167.656854,119 169,120.343146 169,122 L169,131 C168.998104,132.656068 167.656068,133.998104 166,134 Z" id="Path" fill="#FC8D55"></path>
                <path d="M80.9063795,169 L36.0936205,169 C34.9373458,169 34,167.880712 34,166.5 C34,165.119288 34.9373458,164 36.0936205,164 L80.9063795,164 C82.0626542,164 83,165.119288 83,166.5 C83,167.880712 82.0626542,169 80.9063795,169 L80.9063795,169 Z" id="Path" fill="#E6E6E6"></path>
                <path d="M65.9337638,161 L50.0662362,161 C48.9250855,161 48,159.880712 48,158.5 C48,157.119288 48.9250855,156 50.0662362,156 L65.9337638,156 C67.0749145,156 68,157.119288 68,158.5 C68,159.880712 67.0749145,161 65.9337638,161 L65.9337638,161 Z" id="Path" fill="#E6E6E6"></path>
                <rect id="Rectangle" fill="#3F3D56" x="24" y="96" width="172" height="1"></rect>
            </g>
        </g>
    </g>
</svg>