<?xml version="1.0" encoding="UTF-8"?>
<svg width="255px" height="169px" viewBox="0 0 255 169" version="1.1" xmlns="http://www.w3.org/2000/svg" xmlns:xlink="http://www.w3.org/1999/xlink">
    <title>undraw_Booking_re_gw4j</title>
    <g id="Page-1" stroke="none" stroke-width="1" fill="none" fill-rule="evenodd">
        <g id="Welcome---3" transform="translate(-63.000000, -114.000000)" fill-rule="nonzero">
            <g id="undraw_Booking_re_gw4j" transform="translate(63.000000, 114.000000)">
                <path d="M245.326804,113.37753 C243.449944,115.414955 241.122319,116.931671 238.596534,118.109321 L238.593411,118.109321 C238.355827,118.221334 238.118097,118.33032 237.87739,118.433251 L237.874413,118.433251 L237.87129,118.436278 L237.868314,118.433251 L237.86534,118.433251 C237.865351,118.43407 237.865022,118.434858 237.864432,118.43543 C237.863842,118.436002 237.863041,118.436309 237.862217,118.436278 L237.859079,118.436278 L237.856105,118.433251 C237.853128,118.436278 237.853128,118.436278 237.850012,118.433251 L237.847035,118.436278 L237.843912,118.433251 L237.840935,118.433251 C237.837812,118.436278 237.837812,118.436278 237.834842,118.433251 L237.831719,118.433251 C236.141133,119.159864 234.404884,119.776726 232.633911,120.279951 C222.219964,123.215611 211.274425,123.783669 200.609354,121.941981 C200.405242,121.905653 200.204109,121.869324 200,121.832996 L200,97.2779349 C200.201133,97.1931683 200.405242,97.1084018 200.609354,97.0266626 C201.940825,96.4787072 203.288513,95.9751534 204.652418,95.5160011 C206.614519,94.849978 208.604044,94.2788127 210.620992,93.8025053 C217.201362,92.2199751 223.991088,91.6744517 230.741861,92.1858856 C231.96979,92.2767069 233.194598,92.4078933 234.416284,92.5794447 C236.972563,92.933663 239.653663,93.5512329 242.011933,94.6229246 L242.01491,94.6229246 C242.359307,94.7833757 242.697456,94.9498814 243.032631,95.1285119 C245.128773,96.2577238 246.895841,97.8107685 247.97441,99.9390151 C248.361894,100.703355 248.640813,101.517402 248.803196,102.35789 L248.803196,102.363945 C248.864043,102.654573 248.90674,102.948229 248.940212,103.238857 C249.324199,106.823257 247.828189,110.658945 245.326804,113.37753 Z" id="Path" fill="#F2F2F2"></path>
                <path d="M248.711069,103.841689 C248.681309,103.84876 248.650814,103.852639 248.620151,103.853255 C243.425509,104.070112 238.237875,104.392025 233.057249,104.818992 L233.048218,104.818992 C233.027042,104.821884 233.008829,104.821884 232.987656,104.824775 C227.668632,105.264273 222.360715,105.814608 217.063904,106.475782 C216.839574,106.504696 216.618059,106.53361 216.396692,106.559633 C212.733551,107.025153 209.077371,107.541756 205.428151,108.10944 C203.817873,108.360994 202.210657,108.62315 200.606501,108.895909 C200.403344,108.930606 200.203153,108.962411 200,109 L200,108.123897 C200.203153,108.086308 200.406307,108.054502 200.606501,108.019805 C205.949804,107.117679 211.311271,106.330246 216.6909,105.657507 C218.043396,105.484021 219.397905,105.320174 220.754427,105.165964 C224.672398,104.714901 228.596439,104.325522 232.526551,103.997826 C232.8147,103.974695 233.099737,103.951563 233.387883,103.928432 C238.41876,103.52074 243.456744,103.211357 248.501835,103.000283 C248.526278,102.999218 248.550763,103.001162 248.574685,103.006066 C249.059925,103.046546 249.162981,103.740489 248.711069,103.841689 Z" id="Path" fill="#FFFFFF"></path>
                <path d="M237.506074,118.073334 C231.067114,118.122406 224.723565,115.290867 220.169067,110.604039 C218.884003,109.276513 217.751572,107.79905 216.794423,106.201199 C216.48743,105.690598 215.769258,106.253667 216.073617,106.75989 C219.610753,112.642992 225.502655,116.83387 231.9986,118.374801 C233.843314,118.808295 235.730399,119.017712 237.621789,118.998828 C238.199193,118.994425 238.079574,118.068959 237.506074,118.073331 L237.506074,118.073334 Z" id="Path" fill="#FFFFFF"></path>
                <path d="M212,94 C211.941254,94.1816156 211.791079,94.3181958 211.605564,94.3587302 C210.062369,94.7655357 208.571424,95.3514806 207.162761,96.1047619 C205.10561,97.1978165 203.237627,98.6182558 201.631098,100.311111 C201.5459,100.396825 201.463924,100.48254 201.385036,100.571429 C201.252376,100.711111 201.126188,100.853968 201,101 L201,99.615873 C201.201992,99.4 201.413385,99.1873016 201.631098,98.984127 C202.899582,97.7622585 204.304766,96.6926658 205.818436,95.7968254 C207.850558,95.0984127 209.911079,94.4994709 212,94 Z" id="Path" fill="#FFFFFF"></path>
                <path d="M241.417925,95.0378735 C237.488751,96.7440569 234.201078,99.6726028 232.033412,103.397274 C231.94207,103.619069 232.044363,103.873827 232.262834,103.968646 C232.482367,104.056282 232.731322,103.954249 232.828379,103.73686 C234.897338,100.218964 238.018717,97.4558336 241.7424,95.8459249 C242.253354,95.6253827 241.929921,94.8169014 241.417948,95.0378822 L241.417925,95.0378735 Z" id="Path" fill="#FFFFFF"></path>
                <path d="M254.544151,68.9404221 C253.856151,71.5816241 252.536765,73.9742777 250.897113,76.1573121 L250.894074,76.1603066 C250.742776,76.3639367 250.585701,76.5705614 250.422664,76.7682023 L250.422664,76.7711969 C249.284234,78.1876109 248.055008,79.52706 246.742906,80.7809129 C242.026359,85.3202291 236.698818,89.1642549 230.918027,92.1991708 C221.824029,96.9964562 211.659661,99.8323046 201.593024,99.9940109 C201.515999,99.9970054 201.438838,99.9970054 201.361807,99.9970054 C201.24019,100 201.118575,100 201,100 L201,86.3897241 C201.192703,86.0183986 201.391342,85.6470732 201.593024,85.2787423 C204.209123,80.5247451 207.399289,76.1170072 211.090382,72.1565797 C211.179276,72.0577592 211.271213,71.9589387 211.363149,71.8631128 C212.750732,70.3838001 214.205591,68.9753586 215.727725,67.6377884 C221.583352,62.4381029 228.350527,58.3907038 235.680015,55.7044662 C238.043278,54.848022 240.63473,54.1622677 243.155082,54.0275125 C243.525722,54.0065506 243.893465,53.9975669 244.264105,54.0005615 C246.585817,54.0335016 248.812554,54.5874953 250.71324,55.9590038 C251.393837,56.4526973 252.004389,57.0380666 252.527929,57.6988433 C252.711656,57.9294244 252.88076,58.1659947 253.043785,58.408554 L253.043785,58.4115486 C255.006727,61.3761631 255.463368,65.4158248 254.544151,68.9404221 Z" id="Path" fill="#F2F2F2"></path>
                <path d="M252.869527,58.7638837 L252.869527,58.7669625 C252.847237,58.7868457 252.823043,58.8043811 252.797311,58.8193028 C248.339219,61.4701842 243.937408,64.2175359 239.591877,67.061358 C239.585852,67.0644368 239.582903,67.0675157 239.576873,67.0705945 C239.55947,67.0829962 239.541347,67.0943061 239.522603,67.1044617 C235.055537,70.0293599 230.651764,73.052781 226.311283,76.174725 C226.130526,76.3040362 225.946811,76.4364264 225.763123,76.5688165 C222.765958,78.7332411 219.799979,80.9438484 216.865185,83.2006383 C211.322682,87.4679108 205.901764,91.8932304 200.602433,96.4765972 C200.400639,96.6490122 200.201791,96.8245061 200,97 L200,95.8023312 C200.198848,95.6268373 200.400639,95.4513434 200.602433,95.2789283 C202.632703,93.5270683 204.680966,91.7998389 206.747221,90.0972403 C207.364802,89.5892317 207.985179,89.081223 208.605703,88.5793721 C214.118053,84.0935019 219.753852,79.7749154 225.513101,75.6236126 L225.516044,75.6236126 C226.648693,74.8077199 227.783255,73.9990112 228.919731,73.1974865 C232.148839,70.9253024 235.414078,68.7075112 238.715448,66.5441128 C238.953273,66.387092 239.194334,66.2300711 239.43525,66.0730503 C243.661399,63.3144095 247.942703,60.6460813 252.279164,58.0680658 C252.300322,58.0549242 252.32251,58.0435964 252.345498,58.0341985 C252.797311,57.8494681 253.221927,58.4590785 252.869527,58.7638837 Z" id="Path" fill="#FFFFFF"></path>
                <path d="M250.274321,74.6816543 C244.595159,78.2505185 237.710437,78.8728545 231.578898,76.6531359 C229.846575,76.0216855 228.182247,75.1561533 226.619202,74.0738505 C226.11871,73.7286136 225.735002,74.6869303 226.231192,75.0292061 C231.997677,79.0070068 239.091265,79.997381 245.532944,77.994971 C247.36041,77.422206 249.125043,76.6011342 250.791246,75.5483182 C251.300517,75.2282864 250.780147,74.3637811 250.274321,74.6816401 L250.274321,74.6816543 Z" id="Path" fill="#FFFFFF"></path>
                <path d="M208.289691,86.6239326 C208.035246,85.1037184 207.947971,83.5571828 208.029627,82.0155161 C208.213568,78.4995498 209.225859,75.0892153 210.973391,72.0981907 C212.252795,70.664102 213.592905,69.2980385 214.993721,68 C215.020651,68.1727203 214.959787,68.3477216 214.833657,68.4602336 C213.814253,69.4496433 212.906042,70.5613004 212.127178,71.7729812 C209.345073,76.0912574 208.259207,81.3945342 209.101104,86.5520762 C209.128795,86.6710191 209.096348,86.7967188 209.015435,86.8839532 C208.896607,86.9940368 208.731784,87.0288102 208.582442,86.9753036 C208.4331,86.9217971 208.321662,86.7880442 208.289691,86.6239326 L208.289691,86.6239326 Z" id="Path" fill="#FFFFFF"></path>
                <path d="M243.128683,53.1652233 C240.034456,56.6927864 238.237727,61.0419765 238,65.5797866 C238.024211,65.8313811 238.262698,66.0181184 238.534878,65.9985992 C238.804343,65.9718679 239.003599,65.7540133 238.987525,65.5037032 C239.23404,61.2071386 240.949004,57.0940321 243.885114,53.7575113 C244.288192,53.3000236 243.532566,52.7068223 243.128683,53.1652233 L243.128683,53.1652233 Z" id="Path" fill="#FFFFFF"></path>
                <path d="M212.905581,63.9665723 L212.905581,63.9695729 C212.882947,64.2276432 212.856987,64.4826827 212.827704,64.7377373 L212.827704,64.7437386 C212.602351,66.5592625 212.250424,68.3594014 211.774122,70.132892 C211.547291,71.0030782 211.300821,71.8672632 211.031898,72.7314481 C210.999448,72.8424719 210.963674,72.9534957 210.92806,73.0615188 L210.92806,73.0645194 C210.136296,75.5778877 209.190346,78.0474234 208.094817,80.4611024 C206.079046,84.9049574 203.584272,89.149333 200.648358,93.1298138 C200.437671,93.4208761 200.220497,93.7119383 200,94 L200,47.0099433 C200.217174,46.9979407 200.431181,46.9979407 200.648358,47.003942 C200.752037,47.003942 200.855774,47.0069426 200.95957,47.0129439 C201.874281,47.0574334 202.777785,47.220046 203.643859,47.4960623 C203.948568,47.5890822 204.243464,47.6941047 204.535351,47.8111297 C208.072037,49.2454367 210.850358,52.4081136 212.056209,55.8858579 C212.960669,58.4904003 213.142225,61.2299866 212.905581,63.9665723 Z" id="Path" fill="#F2F2F2"></path>
                <path d="M205.979322,47.5104465 C205.970962,47.540035 205.957741,47.5684808 205.940047,47.5949497 C204.498663,49.9701113 203.089257,52.3573266 201.711828,54.7565958 C201.473391,55.1700579 201.234957,55.5865379 201,56 L201,53.9477794 C201.234958,53.5373233 201.472234,53.1268792 201.711828,52.7164471 C202.776095,50.8875565 203.858087,49.0667137 204.957805,47.2539189 C204.9699,47.232756 204.984208,47.2125553 205.000558,47.1935595 C205.32797,46.7951872 206.13938,47.0668047 205.979322,47.5104465 Z" id="Path" fill="#FFFFFF"></path>
                <path d="M212.937381,63.6191277 C212.879451,63.7206577 212.821367,63.8221718 212.756825,63.9237176 C211.810184,65.5473033 210.68355,67.0625879 209.39757,68.4418001 C206.927673,71.0790091 203.953255,73.210611 200.644775,74.714447 C200.431948,74.815977 200.215974,74.9111613 200,75 L200,73.9688365 C200.215974,73.8736522 200.431948,73.775295 200.644775,73.6737651 C205.433918,71.4256169 209.412014,67.7928038 212.047665,63.2606001 C212.124611,63.1296706 212.255488,63.0380341 212.4064,63.0094248 C212.557312,62.9808155 212.713413,63.0180476 212.834272,63.111478 C212.916417,63.1652835 212.973447,63.2490319 212.992789,63.3442604 C213.012131,63.4394888 212.992197,63.5383783 212.937381,63.6191277 L212.937381,63.6191277 Z" id="Path" fill="#FFFFFF"></path>
                <path d="M202,9.99082569 L202,33 L201.399703,33 L201.399703,32.7547706 L0.600297177,32.7547706 L0.600297177,33 L0,33 L0,9.99082569 C0.00536739968,4.47528911 4.4368011,0.00541396038 9.90490342,0 L192.095097,0 C197.563199,0.00541396038 201.994633,4.47528911 202,9.99082569 L202,9.99082569 Z" id="Path" fill="#FC8D55"></path>
                <path d="M192.095097,0 L9.90490342,0 C4.4368011,0.00536474255 0.00536739968,4.43460467 0,9.9 L0,140.1 C0.00536739968,145.565395 4.4368011,149.994635 9.90490342,150 L192.095097,150 C197.563199,149.994635 201.994633,145.565395 202,140.1 L202,9.9 C201.994633,4.43460467 197.563199,0.00536474255 192.095097,0 L192.095097,0 Z M201.399703,140.1 C201.393148,145.233532 197.231171,149.393448 192.095097,149.4 L9.90490342,149.4 C4.76882822,149.39345 0.606850511,145.233533 0.600297177,140.1 L0.600297177,9.9 C0.606850511,4.76646741 4.76882822,0.60655009 9.90490342,0.6 L192.095097,0.6 C197.231171,0.606551738 201.393148,4.76646809 201.399703,9.9 L201.399703,140.1 Z" id="Shape" fill="#3F3D56"></path>
                <circle id="Oval" fill="#FFFFFF" cx="40.5" cy="16.5" r="6.5"></circle>
                <circle id="Oval" fill="#FFFFFF" cx="160.5" cy="16.5" r="6.5"></circle>
                <path d="M58.3086427,83 L22.6913573,83 C19.5495825,82.9964721 17.0035569,80.4700076 17,77.3523692 L17,60.6476308 C17.0035569,57.5299924 19.5495825,55.0035279 22.6913573,55 L58.3086427,55 C61.4504175,55.0035279 63.9964431,57.5299924 64,60.6476308 L64,77.3523692 C63.9964431,80.4700076 61.4504175,82.9964721 58.3086427,83 Z" id="Path" fill="#FC8D55"></path>
                <path d="M82.6913547,83 C79.5495808,82.9964704 77.0035569,80.4700064 77,77.3523692 L77,60.6476308 C77.0035569,57.5299936 79.5495808,55.0035296 82.6913547,55 L118.308645,55 C121.450419,55.0035296 123.996443,57.5299936 124,60.6476308 L124,77.3523692 C123.996443,80.4700064 121.450419,82.9964704 118.308645,83 L82.6913547,83 Z" id="Path" fill="#FC8D55"></path>
                <path d="M119.055054,127 L82.9449549,127 C79.6631779,126.996429 77.0036931,124.424843 77,121.251533 L77,104.748467 C77.0036915,101.575156 79.6631772,99.0035695 82.9449549,99 L119.055054,99 C122.336828,99.0035743 124.996309,101.575159 125,104.748467 L125,121.251533 C124.996309,124.424841 122.336828,126.996426 119.055054,127 Z" id="Path" fill="#F2F2F2"></path>
                <path d="M58.0550448,127 L21.9449431,127 C18.6631707,126.996422 16.0036931,124.424839 16,121.251533 L16,104.748467 C16.0036914,101.575161 18.66317,99.0035759 21.9449431,99 L58.0550448,99 C61.3368214,99.0035695 63.9963069,101.575154 64,104.748464 L64,121.25153 C63.9963085,124.424842 61.3368231,126.996429 58.0550448,127 L58.0550448,127 Z" id="Path" fill="#F2F2F2"></path>
                <path d="M179.055044,127 L142.944953,127 C139.663176,126.996429 137.003691,124.424843 137,121.251533 L137,104.748467 C137.003691,101.575157 139.663176,99.0035711 142.944953,99 L179.055044,99 C182.336821,99.0035695 184.996307,101.575154 185,104.748464 L185,121.25153 C184.996309,124.424842 182.336823,126.996429 179.055044,127 L179.055044,127 Z" id="Path" fill="#F2F2F2"></path>
                <path d="M179.055044,83 L142.944953,83 C139.663177,82.9964289 137.003693,80.4248446 137,77.251536 L137,60.7484669 C137.003691,57.5751571 139.663176,55.0035711 142.944953,55 L179.055044,55 C182.336822,55.0035711 184.996307,57.5751567 185,60.7484669 L185,77.2515331 C184.996309,80.424844 182.336822,82.9964305 179.055044,83 Z" id="Path" fill="#F2F2F2"></path>
                <circle id="Oval" fill="#FFFFFF" cx="39.5" cy="69.5" r="9.5"></circle>
                <path d="M39.1320417,72 C38.924491,72.0003843 38.7224427,71.9334208 38.5563761,71.8092073 L38.5460822,71.8015044 L36.3781467,70.1454252 C36.1046111,69.9367487 35.9635365,69.5982524 36.0081262,69.2575929 C36.0527158,68.9169333 36.2761861,68.6259366 36.5942601,68.4943458 C36.9123341,68.362755 37.2766217,68.4105896 37.5497397,68.6198099 L38.953966,69.6941049 L42.272372,65.3762497 C42.4278018,65.173991 42.6573981,65.0416234 42.9106487,65.0082685 C43.1638993,64.9749136 43.4200574,65.0433039 43.622767,65.1983931 L43.6021363,65.2263517 L43.623296,65.1988068 C44.044864,65.5220746 44.1246083,66.1248087 43.8015547,66.5461461 L39.8983129,71.6249801 C39.7153337,71.8621915 39.4320523,72.0008305 39.1320417,72 L39.1320417,72 Z" id="Path" fill="#FC8D55"></path>
                <circle id="Oval" fill="#FFFFFF" cx="100.5" cy="69.5" r="9.5"></circle>
                <path d="M99.131601,72 C98.924031,72.0003849 98.7219636,71.9334224 98.5558804,71.8092101 L98.5455855,71.8015072 L96.3774506,70.145427 C95.9551663,69.8226344 95.8751316,69.2194384 96.1986882,68.7981512 C96.5222448,68.3768639 97.1268684,68.2970182 97.5491527,68.6198109 L98.9535035,69.6941065 L102.27221,65.3762461 C102.427656,65.1739888 102.657274,65.0416226 102.910547,65.0082683 C103.163821,64.974914 103.420002,65.0433039 103.622731,65.1983922 L103.602098,65.2263508 L103.62326,65.1988087 C104.044869,65.522074 104.12462,66.1248101 103.801535,66.5461459 L99.8979417,71.6249828 C99.7149454,71.8621932 99.4316384,72.0008311 99.131601,72 L99.131601,72 Z" id="Path" fill="#FC8D55"></path>
                <path d="M165.185162,113.925281 C165.806171,113.217789 166.094497,112.260054 165.972558,111.309784 C165.850619,110.359514 165.330941,109.514323 164.553359,109.001636 L159.340141,80 L153,82.4494423 L160.118052,110.18689 C159.36134,111.636769 159.765083,113.44717 161.057837,114.400933 C162.350591,115.354696 164.123737,115.15035 165.185162,113.925281 L165.185162,113.925281 Z" id="Path" fill="#A0616A"></path>
                <path d="M113.023428,70.1248718 C113.040291,70.3066349 113.042553,70.4894229 113.030196,70.671536 L126.209324,80.6484899 L129.946669,79.1389695 L133,84.3889981 L126.647778,87.6937375 C125.593666,88.2421396 124.298052,88.0403248 123.467793,87.1983984 L110.294544,73.8400537 C108.866798,74.1567752 107.388766,73.5714843 106.582411,72.3700741 C105.776057,71.1686639 105.809642,69.6018319 106.666762,68.4349179 C107.523881,67.268004 109.02568,66.7445072 110.438586,67.1201366 C111.851491,67.4957659 112.880673,68.6921391 113.023413,70.1248718 L113.023428,70.1248718 Z" id="Path" fill="#A0616A"></path>
                <polygon id="Path" fill="#A0616A" points="143.999005 166 139.934125 166 138 154 144 154.000322"></polygon>
                <path d="M144.999769,169 L133,168.999541 L133,168.842186 C133,167.557941 133.492071,166.326292 134.367997,165.4182 C135.243923,164.510109 136.431936,164 137.670673,164 L137.670977,164 L145,164.000315 L144.999769,169 Z" id="Path" fill="#2F2E41"></path>
                <polygon id="Path" fill="#A0616A" points="156.999005 166 152.934125 166 151 154 157 154.000322"></polygon>
                <path d="M157.999769,169 L146,168.999541 L146,168.842186 C146,167.557941 146.492071,166.326292 147.367997,165.4182 C148.243923,164.510109 149.431936,164 150.670673,164 L150.670977,164 L158,164.000315 L157.999769,169 Z" id="Path" fill="#2F2E41"></path>
                <path d="M139.553606,163.941652 C138.856813,163.942295 138.274209,163.415247 138.209358,162.725587 L135,119.816814 L135.151666,119.80457 L157.237425,118 L157.243367,118.156018 L158.999052,162.606019 C159.012795,162.970883 158.876582,163.325597 158.621753,163.588545 C158.366924,163.851493 158.015425,164 157.648129,164 L153.317691,164 C152.649346,164.003158 152.080157,163.517755 151.981656,162.860615 L146.100962,126.952821 C146.089029,126.875924 146.019693,126.821025 145.941628,126.826666 C145.863564,126.832306 145.802942,126.896595 145.802321,126.9744 L145.535584,162.427849 C145.529845,163.138576 144.96888,163.722215 144.254921,163.760275 L139.62614,163.939621 C139.601865,163.941069 139.57759,163.941652 139.553606,163.941652 Z" id="Path" fill="#2F2E41"></path>
                <circle id="Oval" fill="#A0616A" cx="143.5" cy="56.5" r="7.5"></circle>
                <path d="M144.207994,122 C140.883098,121.990365 137.574298,121.551266 134.368672,120.694259 C133.732768,120.514526 133.314232,119.925927 133.366478,119.284842 C134.390553,104.340167 134.63133,92.7426713 132.477871,84.7183323 C131.560039,81.2983202 131.976744,77.6963678 133.621075,74.8361281 C136.095717,70.5316669 140.644133,67.9118131 145.495808,68.002269 L145.495808,68.002269 C145.727659,68.0065274 145.961813,68.0145551 146.19827,68.0263521 C153.561225,68.3944913 159.298627,74.8622652 158.987955,82.4442969 L157.506943,118.583501 C157.49588,119.122674 157.151881,119.602456 156.634962,119.799669 C152.662089,121.250935 148.452704,121.996253 144.207994,122 L144.207994,122 Z" id="Path" fill="#3F3D56"></path>
                <path d="M134.22548,87.3437199 L128.410183,80.360442 C128.075379,79.9583797 127.935741,79.4334191 128.027655,78.9223543 C128.11957,78.4112896 128.433933,77.9647409 128.888828,77.69907 L136.76625,73.0991865 C138.936112,71.3834969 142.113576,71.7122193 143.870021,73.8341025 C145.626466,75.9559857 145.299336,79.0706243 143.138665,80.7974171 L136.982095,87.4178382 C136.625284,87.8012932 136.115823,88.0135605 135.586468,87.9993275 C135.057113,87.9850945 134.560296,87.7457711 134.225477,87.3437199 L134.22548,87.3437199 Z" id="Path" fill="#3F3D56"></path>
                <path d="M152.099031,86.8430558 C151.615414,86.6300637 151.250086,86.2201987 151.098434,85.7204786 L148.479375,77.0958684 C147.295569,74.6092696 148.379521,71.6486057 150.902615,70.4771288 C153.425708,69.3056518 156.435994,70.3653528 157.632289,72.846153 L162.697222,80.3759788 C162.989685,80.8108404 163.07538,81.3494792 162.931978,81.8515376 C162.788575,82.3535959 162.430278,82.7693457 161.950451,82.9904517 L153.616308,86.830663 C153.136499,87.0520355 152.582505,87.0565604 152.099031,86.8430558 L152.099031,86.8430558 Z" id="Path" fill="#3F3D56"></path>
                <path d="M147.205027,63.8968664 L142.022006,62.6370821 C141.48738,62.5071357 140.845071,62.2592087 140.770926,61.6821334 C140.671286,60.9066422 141.722207,60.3663956 141.625274,59.5905175 C141.531375,58.8390154 140.574054,58.742161 139.891427,58.5203303 C138.569741,58.0280225 137.854864,56.5103123 138.276577,55.0919471 C137.537992,56.1972306 135.850598,56.2918962 134.892624,55.3964201 C133.934651,54.5009439 133.750905,52.8762377 134.326202,51.6664601 C134.956583,50.4612134 136.090883,49.6479357 137.379191,49.4775091 C138.656311,49.3237186 139.947549,49.579352 141.086693,50.2115038 C141.162602,49.3549121 142.169704,49.0076427 142.979865,49 C146.429688,49.0426945 149.474815,51.4029326 150.564838,54.8790138 C151.558967,58.2807595 150.893991,62.0096493 148.112483,64 L147.205027,63.8968664 Z" id="Path" fill="#2F2E41"></path>
                <path d="M201.699739,169 L87.3002611,169 C87.1344315,169 87,168.776142 87,168.5 C87,168.223858 87.1344315,168 87.3002611,168 L201.699739,168 C201.865569,168 202,168.223858 202,168.5 C202,168.776142 201.865569,169 201.699739,169 Z" id="Path" fill="#3F3D56"></path>
            </g>
        </g>
    </g>
</svg>