<svg id="Layer_1" data-name="Layer 1" xmlns="http://www.w3.org/2000/svg" viewBox="0 0 21 21"><defs><style>.cls-1{fill:#535453;stroke:#0a6dae;stroke-miterlimit:10;}.cls-2{fill:#6dabd6;}</style></defs><circle class="cls-1" cx="10.5" cy="10.5" r="10"/><path class="cls-2" d="M9.25,15l3.22-3.17a3.51,3.51,0,0,0,.62-.76,1.61,1.61,0,0,0,.23-.88,1.23,1.23,0,0,0-.38-.94A1.38,1.38,0,0,0,12,8.89a1.25,1.25,0,0,0-1,.41,1.91,1.91,0,0,0-.45,1l-1.38-.21a2.82,2.82,0,0,1,.29-1,2.61,2.61,0,0,1,.61-.75,2.58,2.58,0,0,1,.85-.5A2.9,2.9,0,0,1,12,7.71a3.39,3.39,0,0,1,1.05.16,2.6,2.6,0,0,1,.89.46,2.32,2.32,0,0,1,.62.77,2.36,2.36,0,0,1,.23,1.06,2.61,2.61,0,0,1-.11.75,2.53,2.53,0,0,1-.29.65,4,4,0,0,1-.42.59c-.16.18-.34.36-.53.54L11,15h3.77v1.3H9.25Z" transform="translate(-1.5 -1.5)"/></svg>