<?xml version="1.0" encoding="UTF-8"?>
<svg width="266px" height="206px" viewBox="0 0 266 206" version="1.1" xmlns="http://www.w3.org/2000/svg" xmlns:xlink="http://www.w3.org/1999/xlink">
    <title>undraw_Security_on_ff2u</title>
    <defs>
        <linearGradient x1="-6.23138374e-05%" y1="50.0001575%" x2="100.000106%" y2="50.0001575%" id="linearGradient-1">
            <stop stop-color="#808080" stop-opacity="0.25" offset="0%"></stop>
            <stop stop-color="#808080" stop-opacity="0.12" offset="53.514%"></stop>
            <stop stop-color="#808080" stop-opacity="0.1" offset="100%"></stop>
        </linearGradient>
    </defs>
    <g id="Page-1" stroke="none" stroke-width="1" fill="none" fill-rule="evenodd">
        <g id="Welcome---4" transform="translate(-53.000000, -87.000000)" fill-rule="nonzero">
            <g id="undraw_Security_on_ff2u" transform="translate(53.000000, 87.000000)">
                <path d="M132,8 L61,51.4626826 C61,51.4626826 61,141.104469 132,190 C203,141.104482 203,51.4626826 203,51.4626826 L132,8 Z" id="Path" fill="#3F3D56"></path>
                <path d="M133.210084,8 L132,8.74295389 L132,189.15217 C132.401848,189.435628 132.803571,189.719215 133.210084,190 C204,141.104479 204,51.4626727 204,51.4626727 L133.210084,8 Z" id="Path" fill="#68AAAB" opacity="0.04"></path>
                <g id="Group" opacity="0.7" transform="translate(110.000000, 84.000000)" fill="url(#linearGradient-1)">
                    <polygon id="Path" points="5.73118519 12.0181333 18.9127037 24.4464 35.2532963 0.2 41.8441852 5.84933333 18.9127037 35.7450667 0.238777778 14.2778667"></polygon>
                </g>
                <polygon id="Path" fill="#3AD29F" points="118.500065 97.4001031 129.299961 107.142784 144.599921 85 150 89.4286082 129.299961 116 114 99.1715464"></polygon>
                <path d="M48.7544341,2.03377923 C48.370712,1.81095413 48.1732644,1.23993448 48.2953711,0.706166709 C48.3049155,0.66663687 48.3109285,0.625743568 48.3132854,0.584334868 L48.3132854,0.584334868 C48.3243604,0.341767643 48.2149049,0.118184902 48.0439061,0.0340788508 C47.8729073,-0.0500272002 47.6807755,0.0252192952 47.5710534,0.219266834 L47.5710534,0.219266834 C47.5526774,0.252796829 47.5373326,0.289100469 47.5253372,0.327424954 C47.3582173,0.839052531 46.929953,1.10231616 46.529626,0.939510828 C46.4999787,0.926783952 46.4693086,0.918765637 46.438252,0.915622173 L46.438252,0.915622173 C46.2563262,0.900855428 46.0886388,1.04679583 46.0255592,1.27479383 C45.9624795,1.50279182 46.0189145,1.75896717 46.1644504,1.90526299 L46.1644504,1.90526299 C46.1895974,1.92976529 46.2168253,1.95022505 46.2455692,1.96621778 C46.6292912,2.18904288 46.8267389,2.76006253 46.7046322,3.2938303 C46.6950878,3.33336118 46.6890748,3.37425546 46.6867179,3.41566513 L46.6867179,3.41566513 C46.6756428,3.65823236 46.7850983,3.8818151 46.9560971,3.96592115 C47.1270959,4.0500272 47.3192278,3.9747807 47.4289499,3.78073317 L47.4289499,3.78073317 C47.4473253,3.74720276 47.4626701,3.7108992 47.474666,3.67257505 C47.6417843,3.16094544 48.0700501,2.89768094 48.4703772,3.06048917 C48.5000247,3.07321503 48.5306947,3.08123234 48.5617513,3.08437484 L48.5617513,3.08437484 C48.7436758,3.09913957 48.9113613,2.95319966 48.9744407,2.72520343 C49.03752,2.4972072 48.9810866,2.24103365 48.8355528,2.09473701 L48.8355528,2.09473701 C48.8104054,2.07023474 48.7831776,2.04977406 48.7544341,2.03377923 L48.7544341,2.03377923 Z" id="Path" fill="#4D8AF0" opacity="0.5"></path>
                <path d="M8.59072345,102.050669 C7.95118674,101.716431 7.6221073,100.859902 7.82561845,100.05925 C7.84152581,99.9999553 7.85154746,99.9386154 7.85547559,99.8765023 L7.85547559,99.8765023 C7.87393405,99.5126515 7.69150822,99.1772774 7.4065102,99.0511183 C7.12151218,98.9249592 6.80129242,99.0378289 6.6184223,99.3289003 L6.6184223,99.3289003 C6.58779572,99.3791952 6.56222107,99.4336507 6.54222868,99.4911374 C6.26369557,100.258579 5.54992167,100.653474 4.88271,100.409266 C4.83329776,100.390176 4.78218104,100.378148 4.73041992,100.373433 L4.73041992,100.373433 C4.42721033,100.351283 4.1477314,100.570194 4.04259864,100.912191 C3.93746589,101.254188 4.03152418,101.638451 4.27408404,101.857894 L4.27408404,101.857894 C4.31599574,101.894648 4.36137554,101.925338 4.40928194,101.949327 C5.04881865,102.283564 5.3778981,103.140094 5.17438694,103.940745 C5.15847967,104.000042 5.14845802,104.061383 5.14452981,104.123498 L5.14452981,104.123498 C5.12607134,104.487349 5.30849717,104.822723 5.59349519,104.948882 C5.87849321,105.075041 6.19871298,104.962171 6.38158309,104.6711 L6.38158309,104.6711 C6.41220888,104.620804 6.43778347,104.566349 6.45777671,104.508863 C6.73630724,103.741418 7.45008348,103.346521 8.1172954,103.590734 C8.16670779,103.609823 8.21782451,103.621849 8.26958548,103.626562 L8.26958548,103.626562 C8.57279296,103.648709 8.85226887,103.429799 8.95740113,103.087805 C9.06253338,102.745811 8.96847763,102.36155 8.72592135,102.142106 L8.72592135,102.142106 C8.68400897,102.105352 8.63862933,102.074661 8.59072345,102.050669 L8.59072345,102.050669 Z" id="Path" fill="#4D8AF0" opacity="0.5"></path>
                <circle id="Oval" fill="#F55F44" opacity="0.5" cx="231.5" cy="67.5" r="3.5"></circle>
                <circle id="Oval" fill="#F55F44" opacity="0.5" cx="41" cy="196" r="4"></circle>
                <ellipse id="Oval" fill="#F55F44" opacity="0.5" cx="261.5" cy="136" rx="3.5" ry="4"></ellipse>
                <path d="M216.590723,11.542224 C215.951187,11.2636927 215.622107,10.5499181 215.825618,9.88270839 C215.841526,9.83329609 215.851547,9.78217946 215.855476,9.73041858 L215.855476,9.73041858 C215.873934,9.42720955 215.691508,9.14773113 215.40651,9.04259856 C215.121512,8.937466 214.801292,9.03152412 214.618422,9.27408354 L214.618422,9.27408354 C214.587796,9.31599604 214.562221,9.36137559 214.542229,9.40928119 C214.263696,10.0488157 213.549922,10.3778952 212.88271,10.1743885 C212.833298,10.1584799 212.782181,10.148457 212.73042,10.1445277 L212.73042,10.1445277 C212.42721,10.1260693 212.147731,10.3084948 212.042599,10.5934923 C211.937466,10.8784898 212.031524,11.198709 212.274084,11.3815787 L212.274084,11.3815787 C212.315996,11.4122066 212.361376,11.4377813 212.409282,11.4577722 C213.048819,11.7363036 213.377898,12.4500782 213.174387,13.1172879 C213.15848,13.1667015 213.148458,13.2178193 213.14453,13.2695814 L213.14453,13.2695814 C213.126071,13.5727904 213.308497,13.8522689 213.593495,13.9574014 C213.878493,14.062534 214.198713,13.9684759 214.381583,13.7259165 L214.381583,13.7259165 C214.412209,13.6840035 214.437783,13.638624 214.457777,13.5907188 C214.736307,12.9511818 215.450083,12.6221012 216.117295,12.8256115 C216.166708,12.8415188 216.217825,12.8515404 216.269585,12.8554685 L216.269585,12.8554685 C216.572793,12.8739245 216.852269,12.6914996 216.957401,12.4065043 C217.062533,12.121509 216.968478,11.8012921 216.725921,11.6184213 L216.725921,11.6184213 C216.684009,11.5877934 216.638629,11.5622176 216.590723,11.542224 L216.590723,11.542224 Z" id="Path" fill="#4D8AF0" opacity="0.5"></path>
                <path d="M247.590723,202.542224 C246.951187,202.263693 246.622107,201.549918 246.825618,200.882708 C246.841526,200.833296 246.851547,200.782179 246.855476,200.730419 L246.855476,200.730419 C246.873934,200.42721 246.691508,200.147731 246.40651,200.042599 C246.121512,199.937466 245.801292,200.031524 245.618422,200.274084 L245.618422,200.274084 C245.587796,200.315996 245.562221,200.361376 245.542229,200.409281 C245.263696,201.048816 244.549922,201.377895 243.88271,201.174389 C243.833298,201.15848 243.782181,201.148457 243.73042,201.144528 L243.73042,201.144528 C243.42721,201.126069 243.147731,201.308495 243.042599,201.593492 C242.937466,201.87849 243.031524,202.198709 243.274084,202.381579 L243.274084,202.381579 C243.315996,202.412207 243.361376,202.437781 243.409282,202.457772 C244.048819,202.736304 244.377898,203.450078 244.174387,204.117288 C244.15848,204.166701 244.148458,204.217819 244.14453,204.269581 L244.14453,204.269581 C244.126071,204.57279 244.308497,204.852269 244.593495,204.957401 C244.878493,205.062534 245.198713,204.968476 245.381583,204.725916 L245.381583,204.725916 C245.412209,204.684003 245.437783,204.638624 245.457777,204.590719 C245.736307,203.951182 246.450083,203.622101 247.117295,203.825611 C247.166708,203.841519 247.217825,203.85154 247.269585,203.855469 L247.269585,203.855469 C247.572793,203.873924 247.852269,203.6915 247.957401,203.406504 C248.062533,203.121509 247.968478,202.801292 247.725921,202.618421 L247.725921,202.618421 C247.684009,202.587793 247.638629,202.562218 247.590723,202.542224 Z" id="Path" fill="#4D8AF0" opacity="0.5"></path>
                <path d="M4.59072345,44.542224 C3.95118674,44.2636927 3.6221073,43.5499181 3.82561845,42.8827084 C3.84152581,42.8332961 3.85154746,42.7821795 3.85547559,42.7304186 L3.85547559,42.7304186 C3.87393405,42.4272096 3.69150822,42.1477311 3.4065102,42.0425986 C3.12151218,41.937466 2.80129242,42.0315241 2.6184223,42.2740835 L2.6184223,42.2740835 C2.58779572,42.315996 2.56222107,42.3613756 2.54222868,42.4092812 C2.26369557,43.0488157 1.54992167,43.3778952 0.882709999,43.1743885 C0.833297763,43.1584799 0.78218104,43.148457 0.730419919,43.1445277 L0.730419919,43.1445277 C0.427210334,43.1260693 0.147731397,43.3084948 0.0425986413,43.5934923 C-0.0625341144,43.8784898 0.0315241766,44.198709 0.274084043,44.3815787 L0.274084043,44.3815787 C0.315995744,44.4122066 0.361375543,44.4377813 0.40928194,44.4577722 C1.04881865,44.7363036 1.3778981,45.4500782 1.17438694,46.1172879 C1.15847967,46.1667015 1.14845802,46.2178193 1.14452981,46.2695814 L1.14452981,46.2695814 C1.12607134,46.5727904 1.30849717,46.8522689 1.59349519,46.9574014 C1.87849321,47.062534 2.19871298,46.9684759 2.38158309,46.7259165 L2.38158309,46.7259165 C2.41220888,46.6840035 2.43778347,46.638624 2.45777671,46.5907188 C2.73630724,45.9511818 3.45008348,45.6221012 4.1172954,45.8256115 C4.16670779,45.8415188 4.21782451,45.8515404 4.26958548,45.8554685 L4.26958548,45.8554685 C4.57279296,45.8739245 4.85226887,45.6914996 4.95740113,45.4065043 C5.06253338,45.121509 4.96847763,44.8012921 4.72592135,44.6184213 L4.72592135,44.6184213 C4.68400897,44.5877934 4.63862933,44.5622176 4.59072345,44.542224 L4.59072345,44.542224 Z" id="Path" fill="#4D8AF0" opacity="0.5"></path>
                <ellipse id="Oval" fill="#47E6B1" opacity="0.5" cx="26.5" cy="75" rx="3.5" ry="3"></ellipse>
                <ellipse id="Oval" fill="#47E6B1" opacity="0.5" cx="262.5" cy="90" rx="3.5" ry="4"></ellipse>
                <g id="Group" opacity="0.5" transform="translate(170.000000, 5.000000)" fill="#47E6B1">
                    <rect id="Rectangle" x="2.055325" y="0" width="1" height="5"></rect>
                    <polygon id="Rectangle" transform="translate(2.471992, 2.500000) rotate(90.000000) translate(-2.471992, -2.500000) " points="2.0308152 0.138888889 2.91316814 0.138888889 2.91316814 4.86111111 2.0308152 4.86111111"></polygon>
                </g>
                <g id="Group" opacity="0.5" transform="translate(173.000000, 179.000000)" fill="#47E6B1">
                    <rect id="Rectangle" x="2.055325" y="0" width="1" height="5"></rect>
                    <polygon id="Rectangle" transform="translate(2.471992, 2.500000) rotate(90.000000) translate(-2.471992, -2.500000) " points="2.0308152 0.138888889 2.91316814 0.138888889 2.91316814 4.86111111 2.0308152 4.86111111"></polygon>
                </g>
                <g id="Group" opacity="0.5" transform="translate(24.000000, 188.000000)" fill="#47E6B1">
                    <rect id="Rectangle" x="2.055325" y="0" width="1" height="5"></rect>
                    <polygon id="Rectangle" transform="translate(2.471992, 2.500000) rotate(90.000000) translate(-2.471992, -2.500000) " points="2.0308152 0.138888889 2.91316814 0.138888889 2.91316814 4.86111111 2.0308152 4.86111111"></polygon>
                </g>
                <g id="Group" opacity="0.5" transform="translate(203.000000, 109.000000)" fill="#47E6B1">
                    <rect id="Rectangle" x="2.055325" y="0" width="1" height="5"></rect>
                    <polygon id="Rectangle" transform="translate(2.471992, 2.500000) rotate(90.000000) translate(-2.471992, -2.500000) " points="2.0308152 0.138888889 2.91316814 0.138888889 2.91316814 4.86111111 2.0308152 4.86111111"></polygon>
                </g>
                <polygon id="Path" fill="#47E6B1" opacity="0.5" points="227.75007 37.0001064 229.549958 38.5713526 232.099916 35 233 35.7143237 229.549958 40 227 37.2858359"></polygon>
                <polygon id="Rectangle" fill="#68AAAB" transform="translate(176.839574, 71.449906) rotate(-2.220710) translate(-176.839574, -71.449906) " points="173.920091 67.7066891 179.758264 67.7073054 179.759056 75.1931238 173.920883 75.1925074"></polygon>
                <path d="M152.809546,92.9147709 C152.809546,92.9147709 144.874528,88.9893075 145.001508,92.3794593 C145.128488,95.7696112 153,98 153,98 L152.809546,92.9147709 Z" id="Path" fill="#FFB9B9"></path>
                <path d="M157.193713,122.415823 C157.193713,122.415823 153.463526,131.649744 152.085311,138.312977 C150.707095,144.97621 148.608149,154.146153 151.308035,160.649444 C154.007921,167.152736 161.683949,186.266153 161.76302,188.328421 C161.84209,190.390688 161.105543,192.484943 162.736781,192.420966 C164.368019,192.356989 173.244953,189.530398 173.605321,188.277041 C173.965689,187.023685 170.576694,183.852012 170.576694,183.852012 L162.208202,157.330427 L170.939451,140.051963 L177.237269,165.828621 L178.47077,198 C178.47077,198 184.524662,196.110272 185.403537,197.728097 C185.403537,197.728097 188.115879,193.904056 188.46042,192.238247 C188.804962,190.572438 187.179476,158.829511 187.179476,158.829511 C187.179476,158.829511 192.736418,122.674151 188.250507,122.850087 C183.764597,123.026022 166.193801,112.149073 157.193713,122.415823 Z" id="Path" fill="#FC8D55"></path>
                <path d="M163.343566,190.824802 C163.343566,190.824802 159.199323,200.01684 158.806733,200.442605 C158.414144,200.868371 155.713549,205.07836 157.755675,204.998889 C159.797802,204.919419 164.619716,202.679326 168.16884,199.257296 C171.717964,195.835266 176.397336,189.906317 175.973084,189.512339 C175.548833,189.11836 172.64233,188 172.64233,188 L163.343566,190.824802 Z" id="Path" fill="#575A89"></path>
                <path d="M181.397692,196.702381 C181.397692,196.702381 181.154345,200.590668 180.421029,202.170015 C179.687713,203.749362 179.780195,206.073324 181.767622,205.998225 C183.755049,205.923126 188.891532,204.953213 188.891532,204.953213 C188.891532,204.953213 189.196534,202.614234 188.783637,202.241925 C188.370739,201.869616 186.611243,197.669105 187.359973,196.477084 C188.108702,195.285063 181.397692,196.702381 181.397692,196.702381 Z" id="Path" fill="#575A89"></path>
                <path d="M183.762351,61 C183.762351,61 187.995249,68.0031388 189.645289,69.6240112 C191.295329,71.2448836 186.653194,74.813571 186.653194,74.813571 L178.344661,76 C178.344661,76 178.449185,67.9739101 178.021275,67.1471256 C177.593365,66.3203411 183.762351,61 183.762351,61 Z" id="Path" fill="#FFB9B9"></path>
                <path d="M176.181397,69.9357039 C176.181397,69.9357039 177.960917,73.2538437 179.612358,73.1882354 C181.263799,73.1226272 189.805779,69.394439 190.17062,68.1091324 C190.535461,66.8238258 193,77.3160279 193,77.3160279 L172.098401,115 L167,111.390104 L169.470364,89.2645206 L171.499246,77.3229898 L176.181397,69.9357039 Z" id="Path" fill="#FC8D55"></path>
                <path d="M191.218606,103.491065 C190.366001,105.24444 189.833496,107.072887 189.907334,108.94474 C189.910608,109.027755 189.913881,109.110753 189.921381,109.193595 C190.123647,113.034977 191.563139,117.477636 192.079577,120.708477 C192.454308,123.026084 192.347666,124.71776 190.968026,125.115368 C187.623234,126.074212 191.455705,126.759448 178.515105,130.99378 C165.574505,135.228111 163.316194,131.573186 163.283451,130.743097 C163.250708,129.913009 165.116088,123.606876 164.677526,123.207935 C164.238964,122.808994 158.541108,128.429895 156.819596,127.664175 C155.098085,126.898455 156.623135,122.683645 156.623135,122.683645 C156.623135,122.683645 160.501247,113.806784 160.419388,111.731553 C160.337529,109.656322 166.293855,99.8688987 166.293855,99.8688987 L170.345113,73.9430183 C170.345113,73.9430183 171.902906,70.5582869 173.997495,70.0627575 C176.092083,69.5672282 177.82996,70.7479862 177.82996,70.7479862 L174.32491,78.3636502 L170.626887,91.8060008 L171.245542,96.7704444 C171.245542,96.7704444 175.545844,87.877476 178.370216,84.4444596 C181.194587,81.0114432 187.216398,72.8841871 187.216398,72.8841871 C187.216398,72.8841871 188.622281,68.2208206 187.560977,66.8272182 C186.499514,65.4294877 191.988008,65.220259 194.328174,70.9504018 C195.568472,73.9873712 197.582169,78.5162175 198.843633,82.7328834 C199.967715,86.4684409 200.498694,89.9605946 199.385056,91.9566988 C197.682979,95.0060865 193.401393,99.0142374 191.218606,103.491065 Z" id="Path" fill="#575A89"></path>
                <path d="M199.354613,91.354328 C197.568254,94.4331381 193.074712,98.4799691 190.783864,103 C190.185522,100.961304 189.455574,98.8519189 189.455574,98.8519189 C189.455574,98.8519189 186.655912,84.685487 194.937214,81.0243423 C196.309376,80.8988691 197.681733,81.2615196 198.786381,82.0414995 C199.966117,85.8131065 200.523383,89.3389659 199.354613,91.354328 Z" id="Path" fill="#000000" opacity="0.1"></path>
                <path d="M166.367839,90 L159.901658,91.8689855 L150.923613,92.2140761 L150,99.946681 L164.754632,101 C164.754632,101 168.439941,90.7305768 166.367839,90 Z" id="Path" fill="#575A89"></path>
                <path d="M178.719528,117 C178.719528,117 169.137565,118.390247 171.324547,120.911876 C173.511529,123.433505 182,120.782441 182,120.782441 L178.719528,117 Z" id="Path" fill="#FFB9B9"></path>
                <path d="M188.887188,109 C189.085201,112.881742 190.494423,117.371076 191,120.635862 C188.209029,123.316301 185.554985,125.680529 184.554772,125.719887 C182.488203,125.801206 179.165667,125.51191 177.941753,125.980109 C176.717839,126.448307 176,118.495879 176,118.495879 C176,118.495879 176.730463,115.946912 179.988884,114.558596 C182.188259,113.619366 186.404117,111.071881 188.887188,109 Z" id="Path" fill="#000000" opacity="0.1"></path>
                <path d="M195.278067,78.0284217 C195.278067,78.0284217 202.368047,76.9077755 201.985021,88.7401623 C201.601995,100.572549 202.732375,108.125385 199.880826,110.346875 C197.029277,112.568365 187.766669,122.636833 185.671824,122.718542 C183.576979,122.800251 180.208979,122.50957 178.968319,122.980013 C177.727658,123.450457 177,115.459855 177,115.459855 C177,115.459855 177.740458,112.898662 181.043468,111.503676 C184.346478,110.108689 192.128175,105.162592 192.06319,103.476914 C191.998204,101.791235 190.094868,95.9567573 190.094868,95.9567573 C190.094868,95.9567573 187.447631,81.7102603 195.278067,78.0284217 Z" id="Path" fill="#575A89"></path>
                <circle id="Oval" fill="#FFB9B9" cx="177" cy="62" r="9"></circle>
                <path d="M170.987811,48.8538862 C170.761792,49.0446515 170.491129,49.1777091 170.199918,49.2412128 C169.89559,49.2943578 169.604546,49.0968641 169.548361,48.7990855 C169.333969,49.2346365 169.09208,49.6988407 168.654358,49.9223298 C168.216637,50.1458188 167.539788,49.958418 167.476693,49.4788394 C167.412784,49.842972 167.248337,50.1830186 167.001184,50.4621114 C166.7296,50.7157716 166.237103,50.7797934 166,50.4948931 C166.19169,51.5211134 166.073376,52.5764752 166.133575,53.6180673 C166.193773,54.6596593 166.477303,55.7638995 167.280625,56.4488167 C168.45218,57.4476944 170.21391,57.2011699 171.754995,57.0119254 C171.988044,56.9640175 172.229854,56.9769764 172.456177,57.0495027 C173.033208,57.290336 173.00703,58.0772068 173.014811,58.6915864 C173.112002,60.9175957 174.836155,62.7492978 177.093178,63.0243528 C177.704864,63.1168421 178.32901,62.9676205 178.828428,62.6094866 C179.265981,62.2461751 179.489484,61.6540325 179.990862,61.3810978 C180.806436,60.9371452 181.795574,61.5846006 182.391865,62.2875895 C182.988156,62.9905784 183.575841,63.8553274 184.499579,63.9840117 C185.721278,64.154197 186.651781,62.9345354 187.108301,61.8114776 C188.380745,58.6314877 188.288091,55.0828382 186.851364,51.9707283 C184.300424,46.5234659 175.586353,45.6618737 170.987811,48.8538862 Z" id="Path" fill="#2F2E41"></path>
            </g>
        </g>
    </g>
</svg>