<?xml version="1.0" encoding="UTF-8"?>
<svg width="57px" height="61px" viewBox="0 0 57 61" version="1.1" xmlns="http://www.w3.org/2000/svg" xmlns:xlink="http://www.w3.org/1999/xlink">
    <title>engineering_black_24dp</title>
    <g id="No-Vault-Account-/-Vault-Approved" stroke="none" stroke-width="1" fill="none" fill-rule="evenodd">
        <g id="Operator-has-vault-but-not-worked-yet" transform="translate(-160.000000, -256.000000)" fill="#2081C3" fill-rule="nonzero">
            <g id="engineering_black_24dp" transform="translate(160.000000, 256.333333)">
                <g id="Group" transform="translate(0.000000, 0.000000)">
                    <path d="M28.2438116,38.8235294 C18.8174395,38.8235294 0,43.5529412 0,52.9411765 L0,60 L56.4876233,60 L56.4876233,52.9411765 C56.4876233,43.5529412 37.6701838,38.8235294 28.2438116,38.8235294 Z" id="Path"></path>
                    <path d="M13.2039819,17.6470588 L43.3189461,17.6470588 C44.2721747,17.6470588 45.0488796,16.8705882 45.0488796,15.9176471 L45.0488796,15.8470588 C45.0488796,14.8941176 44.2721747,14.1176471 43.3189461,14.1176471 L42.3657175,14.1176471 C42.3657175,8.89411765 39.5060315,4.41176471 35.3047646,1.94117647 L35.3047646,5.29411765 C35.3047646,6.28235294 34.5280597,7.05882353 33.5395263,7.05882353 C32.5509929,7.05882353 31.7742881,6.28235294 31.7742881,5.29411765 L31.7742881,0.494117647 C30.6445356,0.211764706 29.4794784,0 28.2438116,0 C27.0081449,0 25.8430877,0.211764706 24.7133352,0.494117647 L24.7133352,5.29411765 C24.7133352,6.28235294 23.9366304,7.05882353 22.948097,7.05882353 C21.9595636,7.05882353 21.1828587,6.28235294 21.1828587,5.29411765 L21.1828587,1.94117647 C16.9815917,4.41176471 14.1219058,8.89411765 14.1219058,14.1176471 L13.2039819,14.1176471 C12.2507533,14.1176471 11.4740485,14.8941176 11.4740485,15.8470588 L11.4740485,15.9529412 C11.4740485,16.8705882 12.2507533,17.6470588 13.2039819,17.6470588 Z" id="Path"></path>
                    <path d="M28.2438116,31.7647059 C34.8104978,31.7647059 40.2827364,27.2470588 41.8714508,21.1764706 L14.6161725,21.1764706 C16.2048869,27.2470588 21.6771254,31.7647059 28.2438116,31.7647059 Z" id="Path"></path>
                </g>
            </g>
        </g>
    </g>
</svg>