<?xml version="1.0" encoding="UTF-8"?>
<svg width="30px" height="30px" viewBox="0 0 30 30" version="1.1" xmlns="http://www.w3.org/2000/svg" xmlns:xlink="http://www.w3.org/1999/xlink">
    <title>account_balance_black_24dp</title>
    <g id="Page-1" stroke="none" stroke-width="1" fill="none" fill-rule="evenodd">
        <g id="Artboard" transform="translate(-559.000000, -323.000000)">
            <g id="account_balance_black_24dp" transform="translate(559.000000, 323.000000)">
                <polygon id="Path" points="0 0 30 0 30 30 0 30"></polygon>
                <path d="M25.03,22.51 L25.49,22.97 L20.96,27.5 L20.5,27.5 L20.5,27.04 L25.03,22.51 M26.83,19.5 C26.705,19.5 26.575,19.55 26.48,19.645 L25.565,20.56 L27.44,22.435 L28.355,21.52 C28.55,21.325 28.55,21.01 28.355,20.815 L27.185,19.645 C27.085,19.545 26.96,19.5 26.83,19.5 Z M25.03,21.095 L19.5,26.625 L19.5,28.5 L21.375,28.5 L26.905,22.97 L25.03,21.095 Z" id="Shape" fill="#000000" fill-rule="nonzero"></path>
                <path d="M17,23.75 L17,26.25 L2.5,26.25 L2.5,23.75 L17,23.75 Z M8.125,12.5 L8.125,21.25 L5.625,21.25 L5.625,12.5 L8.125,12.5 Z M15.625,12.5 L15.625,21.25 L13.125,21.25 L13.125,12.5 L15.625,12.5 Z M23.125,12.5 L23.125,17 L20.625,17 L20.625,12.5 L23.125,12.5 Z M14.375,1.25 L26.25,7.5 L26.25,10 L2.5,10 L2.5,7.5 L14.375,1.25 Z M14.375,4.075 L7.8625,7.5 L20.8875,7.5 L14.375,4.075 Z" id="Combined-Shape" fill="#000000" fill-rule="nonzero"></path>
            </g>
        </g>
    </g>
</svg>