<?xml version="1.0" encoding="UTF-8"?>
<svg width="335px" height="70px" viewBox="0 0 335 70" version="1.1" xmlns="http://www.w3.org/2000/svg" xmlns:xlink="http://www.w3.org/1999/xlink">
    <title>logo</title>
    <g id="Page-1" stroke="none" stroke-width="1" fill="none" fill-rule="evenodd">
        <g id="iPhone-8" transform="translate(-190.000000, -128.000000)" fill="#ffffff" fill-rule="nonzero">
            <g id="logo" transform="translate(190.170530, 128.501867)">
                <path d="M0.571873171,67.551 C-0.19062439,66.7952344 -0.19062439,65.5661719 0.571873171,64.8098672 L0.571873171,64.8098672 L45.1546276,20.5566094 C45.5364195,20.1781875 46.0355187,19.9889766 46.5362472,19.9889766 L46.5362472,19.9889766 C47.0364325,19.9889766 47.5355317,20.1781875 47.9167805,20.5566094 L47.9167805,20.5566094 L65.9761333,38.4793594 C66.739174,39.2367422 66.739174,40.4631094 65.9761333,41.2210313 L65.9761333,41.2210313 C65.2136358,41.9784141 63.9770211,41.9784141 63.2145236,41.2210313 L63.2145236,41.2210313 L46.5362472,24.6696563 L3.33348293,67.551 C2.95223415,67.9294219 2.45259187,68.1186328 1.95294959,68.1186328 L1.95294959,68.1186328 C1.45276423,68.1186328 0.953121951,67.9294219 0.571873171,67.551" id="path34" transform="translate(33.274207, 44.053805) scale(-1, 1) rotate(-180.000000) translate(-33.274207, -44.053805) "></path>
                <path d="M109.880569,16.2856172 L96.8067772,3.30930469 C96.0437366,2.55353906 96.0437366,1.32501562 96.8067772,0.567632812 L96.8067772,0.567632812 C97.188026,0.189210937 97.6871252,-2.48689958e-14 98.1873106,-2.48689958e-14 L98.1873106,-2.48689958e-14 C98.688039,-2.48689958e-14 99.1871382,0.189210937 99.568387,0.567632812 L99.568387,0.567632812 L112.642722,13.5439453 C113.40522,14.30025 113.40522,15.5282344 112.642722,16.2856172 L112.642722,16.2856172 C112.26093,16.6640391 111.761288,16.85325 111.261646,16.85325 L111.261646,16.85325 C110.76146,16.85325 110.261818,16.6640391 109.880569,16.2856172" id="path58" transform="translate(104.724546, 8.426625) scale(-1, 1) rotate(-180.000000) translate(-104.724546, -8.426625) "></path>
                <path d="M71.4010537,68.1186328 C70.321935,68.1186328 69.4481041,67.2507422 69.4481041,66.179625 L69.4481041,66.179625 L69.4481041,22.4206875 C69.4481041,21.3495703 70.321935,20.4816797 71.4010537,20.4816797 L71.4010537,20.4816797 L98.1873106,20.4816797 C99.2669724,20.4816797 100.140803,21.3495703 100.140803,22.4206875 L100.140803,22.4206875 C100.140803,23.4918047 99.2669724,24.3591563 98.1873106,24.3591563 L98.1873106,24.3591563 L73.3540033,24.3591563 L73.3540033,64.2411563 L98.1873106,64.2411563 C99.2669724,64.2411563 100.140803,65.1090469 100.140803,66.179625 L100.140803,66.179625 C100.140803,67.2507422 99.2669724,68.1186328 98.1873106,68.1186328 L98.1873106,68.1186328 L71.4010537,68.1186328 Z" id="path82" transform="translate(84.794454, 44.300156) scale(-1, 1) rotate(-180.000000) translate(-84.794454, -44.300156) "></path>
                <path d="M71.7497171,43.0538438 C70.6705984,43.0538438 69.7967675,42.1864922 69.7967675,41.1148359 L69.7967675,41.1148359 C69.7967675,40.0442578 70.6705984,39.1763672 71.7497171,39.1763672 L71.7497171,39.1763672 L91.3514439,39.1763672 C92.4305626,39.1763672 93.3043935,40.0442578 93.3043935,41.1148359 L93.3043935,41.1148359 C93.3043935,42.1864922 92.4305626,43.0538438 91.3514439,43.0538438 L91.3514439,43.0538438 L71.7497171,43.0538438 Z" id="path106" transform="translate(81.550580, 41.115105) scale(-1, 1) rotate(-180.000000) translate(-81.550580, -41.115105) "></path>
                <path d="M269.370185,66.179625 L269.370185,22.4206875 C269.370185,21.3495703 270.244559,20.4816797 271.323135,20.4816797 L271.323135,20.4816797 L295.599233,20.4816797 C296.677808,20.4816797 297.551639,21.3495703 297.551639,22.4206875 L297.551639,22.4206875 C297.551639,23.4918047 296.677808,24.3591563 295.599233,24.3591563 L295.599233,24.3591563 L273.277171,24.3591563 L273.277171,66.179625 C273.277171,67.2507422 272.402254,68.1186328 271.323135,68.1186328 L271.323135,68.1186328 C270.244559,68.1186328 269.370185,67.2507422 269.370185,66.179625" id="path130" transform="translate(283.460912, 44.300156) scale(-1, 1) rotate(-180.000000) translate(-283.460912, -44.300156) "></path>
                <path d="M161.688042,66.1807031 L161.688042,44.3006953 C161.688042,43.2295781 162.562416,42.3616875 163.640992,42.3616875 L163.640992,42.3616875 C164.720111,42.3616875 165.593941,43.2295781 165.593941,44.3006953 L165.593941,44.3006953 L165.593941,66.1807031 C165.593941,67.2512813 164.720111,68.1186328 163.640992,68.1186328 L163.640992,68.1186328 C162.562416,68.1186328 161.688042,67.2512813 161.688042,66.1807031" id="path154" transform="translate(163.640992, 55.240160) scale(-1, 1) rotate(-180.000000) translate(-163.640992, -55.240160) "></path>
                <path d="M177.219857,45.4003828 L163.600803,25.8329531 L149.983922,45.4003828 C149.372946,46.2812109 148.154797,46.5016875 147.267932,45.8941641 L147.267932,45.8941641 C146.379437,45.2861016 146.157314,44.0786016 146.771005,43.1977734 L146.771005,43.1977734 L161.994345,21.321 C162.358215,20.7959531 162.958872,20.4827578 163.600803,20.4827578 L163.600803,20.4827578 C164.242735,20.4827578 164.843392,20.7959531 165.207262,21.3193828 L165.207262,21.3193828 L180.433317,43.1977734 C181.046465,44.0786016 180.824341,45.2861016 179.936933,45.8941641 L179.936933,45.8941641 C179.596959,46.1270391 179.209737,46.2391641 178.826315,46.2391641 L178.826315,46.2391641 C178.206107,46.2391641 177.597304,45.9464531 177.219857,45.4003828" id="path178" transform="translate(163.601984, 33.360961) scale(-1, 1) rotate(-180.000000) translate(-163.601984, -33.360961) "></path>
                <path d="M304.910501,68.1186328 C303.831382,68.1186328 302.957008,67.2507422 302.957008,66.179625 L302.957008,66.179625 L302.957008,22.4206875 C302.957008,21.3495703 303.831382,20.4816797 304.910501,20.4816797 L304.910501,20.4816797 L331.696758,20.4816797 C332.775876,20.4816797 333.650793,21.3495703 333.650793,22.4206875 L333.650793,22.4206875 C333.650793,23.4918047 332.775876,24.3591562 331.696758,24.3591562 L331.696758,24.3591562 L306.86345,24.3591562 L306.86345,64.2411562 L331.696758,64.2411562 C332.775876,64.2411562 333.650793,65.1090469 333.650793,66.179625 L333.650793,66.179625 C333.650793,67.2507422 332.775876,68.1186328 331.696758,68.1186328 L331.696758,68.1186328 L304.910501,68.1186328 Z" id="path202" transform="translate(318.303901, 44.300156) scale(-1, 1) rotate(-180.000000) translate(-318.303901, -44.300156) "></path>
                <path d="M305.504098,43.0538437 C304.425522,43.0538437 303.551691,42.1864922 303.551691,41.1148359 L303.551691,41.1148359 C303.551691,40.0442578 304.425522,39.1763672 305.504098,39.1763672 L305.504098,39.1763672 L324.860891,39.1763672 C325.94001,39.1763672 326.813841,40.0442578 326.813841,41.1148359 L326.813841,41.1148359 C326.813841,42.1864922 325.94001,43.0538437 324.860891,43.0538437 L324.860891,43.0538437 L305.504098,43.0538437 Z" id="path226" transform="translate(315.182766, 41.115105) scale(-1, 1) rotate(-180.000000) translate(-315.182766, -41.115105) "></path>
                <path d="M196.658657,66.9089766 L178.772007,23.1495 C178.365776,22.157625 178.848039,21.0272109 179.847324,20.6239922 L179.847324,20.6239922 C180.088455,20.5275 180.336647,20.4816797 180.580494,20.4816797 L180.580494,20.4816797 C181.352224,20.4816797 182.084309,20.9382656 182.392784,21.6913359 L182.392784,21.6913359 L198.469317,61.0240313 L214.545307,21.6913359 C214.950452,20.7005391 216.087138,20.2234688 217.089681,20.6239922 L217.089681,20.6239922 C218.089509,21.0272109 218.571229,22.157625 218.166085,23.1495 L218.166085,23.1495 L200.279434,66.9089766 C199.979649,67.6404844 199.264943,68.1186328 198.469317,68.1186328 L198.469317,68.1186328 C197.673691,68.1186328 196.958985,67.6404844 196.658657,66.9089766" id="path250" transform="translate(198.468776, 44.300156) scale(-1, 1) rotate(-180.000000) translate(-198.468776, -44.300156) "></path>
                <path d="M186.289993,55.3180547 C185.210875,55.3180547 184.337044,54.4507031 184.337044,53.3790469 L184.337044,53.3790469 C184.337044,52.3084687 185.210875,51.4405781 186.289993,51.4405781 L186.289993,51.4405781 L210.635063,51.4405781 C211.714182,51.4405781 212.588556,52.3084687 212.588556,53.3790469 L212.588556,53.3790469 C212.588556,54.4507031 211.714182,55.3180547 210.635063,55.3180547 L210.635063,55.3180547 L186.289993,55.3180547 Z" id="path274" transform="translate(198.462800, 53.379316) scale(-1, 1) rotate(-180.000000) translate(-198.462800, -53.379316) "></path>
                <path d="M110.395418,68.1186328 C109.315756,68.1186328 108.441382,67.2512812 108.441382,66.1801641 L108.441382,66.1801641 C108.441382,65.1085078 109.315756,64.2411562 110.395418,64.2411562 L110.395418,64.2411562 L127.094875,64.2411562 L141.264621,50.1753984 C141.64587,49.7969766 142.144969,49.6077656 142.645154,49.6077656 L142.645154,49.6077656 C143.145883,49.6077656 143.644982,49.7969766 144.026231,50.1753984 L144.026231,50.1753984 C144.789272,50.9333203 144.789272,52.1596875 144.026231,52.9170703 L144.026231,52.9170703 L129.284611,67.5504609 C128.918569,67.9143281 128.421642,68.1186328 127.904078,68.1186328 L127.904078,68.1186328 L110.395418,68.1186328 Z" id="path298" transform="translate(126.519947, 58.863199) scale(-1, 1) rotate(-180.000000) translate(-126.519947, -58.863199) "></path>
                <path d="M109.906637,68.1186328 C108.827519,68.1186328 107.953145,67.2507422 107.953145,66.179625 L107.953145,66.179625 L107.953145,22.4206875 C107.953145,21.3495703 108.827519,20.4816797 109.906637,20.4816797 L109.906637,20.4816797 C110.985756,20.4816797 111.859587,21.3495703 111.859587,22.4206875 L111.859587,22.4206875 L111.859587,64.2411563 L126.159675,64.2411563 C132.891268,64.2411563 138.367239,58.3713047 138.367239,51.154875 L138.367239,51.154875 C138.367239,47.3841328 136.848218,43.7950547 134.198485,41.3078203 L134.198485,41.3078203 C133.414807,40.572 133.379506,39.3450938 134.120823,38.5672266 L134.120823,38.5672266 C134.861054,37.7882813 136.098754,37.7537813 136.881889,38.4906797 L136.881889,38.4906797 C140.308784,41.7072656 142.274224,46.3237969 142.274224,51.154875 L142.274224,51.154875 C142.274224,60.5086875 135.045161,68.1186328 126.159675,68.1186328 L126.159675,68.1186328 L109.906637,68.1186328 Z" id="path322" transform="translate(125.113685, 44.300156) scale(-1, 1) rotate(-180.000000) translate(-125.113685, -44.300156) "></path>
                <path d="M228.958358,68.1186328 C227.879782,68.1186328 227.005408,67.2507422 227.005408,66.179625 L227.005408,66.179625 L227.005408,22.4206875 C227.005408,21.3495703 227.879782,20.4816797 228.958358,20.4816797 L228.958358,20.4816797 L247.233317,20.4816797 C248.312436,20.4816797 249.18681,21.3495703 249.18681,22.4206875 L249.18681,22.4206875 C249.18681,23.4918047 248.312436,24.3591563 247.233317,24.3591563 L247.233317,24.3591563 L230.911307,24.3591563 L230.911307,64.2411563 L247.233317,64.2411563 C248.312436,64.2411563 249.18681,65.1090469 249.18681,66.179625 L249.18681,66.179625 C249.18681,67.2507422 248.312436,68.1186328 247.233317,68.1186328 L247.233317,68.1186328 L228.958358,68.1186328 Z" id="path346" transform="translate(238.096109, 44.300156) scale(-1, 1) rotate(-180.000000) translate(-238.096109, -44.300156) "></path>
                <path d="M229.539463,44.8995937 C228.460345,44.8995937 227.585971,44.0322422 227.585971,42.961125 L227.585971,42.961125 C227.585971,41.8900078 228.460345,41.0221172 229.539463,41.0221172 L229.539463,41.0221172 L247.326185,41.0221172 C248.405304,41.0221172 249.279135,41.8900078 249.279135,42.961125 L249.279135,42.961125 C249.279135,44.0322422 248.405304,44.8995937 247.326185,44.8995937 L247.326185,44.8995937 L229.539463,44.8995937 Z" id="path370" transform="translate(238.432553, 42.960855) scale(-1, 1) rotate(-180.000000) translate(-238.432553, -42.960855) "></path>
                <path d="M245.373236,42.9605859 C245.373236,41.8900078 246.24761,41.0221172 247.326185,41.0221172 L247.326185,41.0221172 C251.941902,41.0221172 255.697909,37.2842578 255.697909,32.6892891 L255.697909,32.6892891 C255.697909,28.0959375 251.941902,24.3591562 247.326185,24.3591562 L247.326185,24.3591562 C246.24761,24.3591562 245.373236,23.4918047 245.373236,22.4206875 L245.373236,22.4206875 C245.373236,21.3495703 246.24761,20.4816797 247.326185,20.4816797 L247.326185,20.4816797 C254.096881,20.4816797 259.604894,25.9585547 259.604894,32.6892891 L259.604894,32.6892891 C259.604894,39.4216406 254.096881,44.8995937 247.326185,44.8995937 L247.326185,44.8995937 C246.24761,44.8995937 245.373236,44.0317031 245.373236,42.9605859" id="path394" transform="translate(252.489065, 32.690637) scale(-1, 1) rotate(-180.000000) translate(-252.489065, -32.690637) "></path>
                <path d="M245.373236,66.1801641 C245.373236,65.1090469 246.24761,64.2411562 247.326185,64.2411562 L247.326185,64.2411562 C252.814104,64.2411562 257.278299,59.9033203 257.278299,54.5692969 L257.278299,54.5692969 C257.278299,49.2379687 252.814104,44.8995937 247.326185,44.8995937 L247.326185,44.8995937 C246.24761,44.8995937 245.373236,44.0322422 245.373236,42.961125 L245.373236,42.961125 C245.373236,41.8900078 246.24761,41.0221172 247.326185,41.0221172 L247.326185,41.0221172 C254.967454,41.0221172 261.184741,47.0995078 261.184741,54.5692969 L261.184741,54.5692969 C261.184741,62.0407031 254.967454,68.1186328 247.326185,68.1186328 L247.326185,68.1186328 C246.24761,68.1186328 245.373236,67.2512812 245.373236,66.1801641" id="path418" transform="translate(253.278989, 54.570375) scale(-1, 1) rotate(-180.000000) translate(-253.278989, -54.570375) "></path>
            </g>
        </g>
    </g>
</svg>