<?xml version="1.0" encoding="UTF-8"?>
<svg width="60px" height="60px" viewBox="0 0 60 60" version="1.1" xmlns="http://www.w3.org/2000/svg" xmlns:xlink="http://www.w3.org/1999/xlink">
    <title>Pending Icon</title>
    <g id="Bg-Check-Statuses" stroke="none" stroke-width="1" fill="none" fill-rule="evenodd">
        <g id="In-Review" transform="translate(-158.000000, -130.000000)">
            <g id="Group" transform="translate(17.000000, 130.000000)">
                <g id="Pending-Icon" transform="translate(141.000000, 0.000000)">
                    <circle id="Oval" fill="#68AAAB" cx="30" cy="30" r="30"></circle>
                    <path d="M44.8741809,22 L36.7483617,30.3333333 L42.8427261,30.3333333 C42.8427261,37.2291667 37.3781127,42.8333333 30.6539974,42.8333333 C28.602228,42.8333333 26.6520315,42.3125 24.965924,41.375 L22,44.4166667 C24.4986894,46.0416667 27.4646134,47 30.6539974,47 C39.6330275,47 46.9056356,39.5416667 46.9056356,30.3333333 L53,30.3333333 L44.8741809,22 Z M18.1572739,30.6666667 C18.1572739,23.7708333 23.6218873,18.1666667 30.3460026,18.1666667 C32.397772,18.1666667 34.3479685,18.6875 36.034076,19.625 L39,16.5833333 C36.5013106,14.9583333 33.5353866,14 30.3460026,14 C21.3669725,14 14.0943644,21.4583333 14.0943644,30.6666667 L8,30.6666667 L16.1258191,39 L24.2516383,30.6666667 L18.1572739,30.6666667 Z" id="Shape" fill="#FFFFFF" fill-rule="nonzero" transform="translate(30.500000, 30.500000) scale(-1, 1) translate(-30.500000, -30.500000) "></path>
                </g>
            </g>
        </g>
    </g>
</svg>