<?xml version="1.0" encoding="utf-8"?>
<svg viewBox="0 0 442 276" xmlns="http://www.w3.org/2000/svg">
  <g id="Confetti" opacity="0.75" transform="matrix(1, 0, 0, 1, -3.390115, 1.092918)">
    <g opacity="0.73" transform="translate(67.231969, 75.540323) rotate(-32.000000) translate(-67.231969, -75.540323) translate(8.731969, 43.540323)">
      <path d="M7.02936984,32.7095417 L12.7819719,36.8161872 L10.5882766,43.4499832 L3.4704631,43.4499832 L1.27676778,36.8161872 L7.02936984,32.7095417 Z" id="Polygon" stroke="#D363A8" fill="none"/>
      <ellipse id="Oval" stroke="#328A8B" cx="40.2333902" cy="7.96453792" rx="6.68246445" ry="6.55724713" fill="none"/>
      <ellipse id="Oval" fill="#328A8B" cx="40.2333902" cy="7.96453792" rx="3.07819905" ry="3.02453448"/>
      <g id="Dots-square" transform="translate(45.219197, 51.694141)" fill="#2081C3">
        <ellipse id="Oval" cx="1.41084123" cy="1.38624497" rx="1.41084123" ry="1.38624497"/>
        <ellipse id="Oval" cx="5.64336493" cy="1.38624497" rx="1.41084123" ry="1.38624497"/>
        <ellipse id="Oval" cx="9.87588863" cy="1.38624497" rx="1.41084123" ry="1.38624497"/>
        <ellipse id="Oval" cx="1.41084123" cy="5.54497989" rx="1.41084123" ry="1.38624497"/>
        <ellipse id="Oval" cx="5.64336493" cy="5.54497989" rx="1.41084123" ry="1.38624497"/>
        <ellipse id="Oval" cx="9.87588863" cy="5.54497989" rx="1.41084123" ry="1.38624497"/>
        <ellipse id="Oval" cx="1.41084123" cy="9.7037148" rx="1.41084123" ry="1.38624497"/>
        <ellipse id="Oval" cx="5.64336493" cy="9.7037148" rx="1.41084123" ry="1.38624497"/>
        <ellipse id="Oval" cx="9.87588863" cy="9.7037148" rx="1.41084123" ry="1.38624497"/>
      </g>
      <g id="Jagged-line" transform="translate(103.511092, 55.783352) rotate(20.000000) translate(-103.511092, -55.783352) translate(90.511092, 53.283352)" stroke="#F9C163" stroke-linecap="square">
        <line x1="0.735670214" y1="3.54224759" x2="3.67835107" y2="0.708449519" id="Line-11"/>
        <line x1="3.67835107" y1="3.54224759" x2="6.62103192" y2="0.708449519" id="Line-11" transform="translate(5.149691, 2.125349) scale(1, -1) translate(-5.149691, -2.125349) "/>
        <line x1="6.62103192" y1="3.54224759" x2="9.56371278" y2="0.708449519" id="Line-11"/>
        <line x1="9.56371278" y1="3.54224759" x2="12.5063936" y2="0.708449519" id="Line-11" transform="translate(11.035053, 2.125349) scale(1, -1) translate(-11.035053, -2.125349) "/>
        <line x1="12.5063936" y1="3.54224759" x2="15.4490745" y2="0.708449519" id="Line-11"/>
        <line x1="15.4490745" y1="3.54224759" x2="18.3917553" y2="0.708449519" id="Line-11" transform="translate(16.920415, 2.125349) scale(1, -1) translate(-16.920415, -2.125349) "/>
        <line x1="18.3917553" y1="3.54224759" x2="21.3344362" y2="0.708449519" id="Line-11"/>
        <line x1="21.3344362" y1="3.54224759" x2="24.2771171" y2="0.708449519" id="Line-11" transform="translate(22.805777, 2.125349) scale(1, -1) translate(-22.805777, -2.125349) "/>
      </g>
    </g>
    <g opacity="0.97" transform="matrix(0.438371, -0.898794, 0.898794, 0.438371, 156.618332, 63.355919)">
      <path d="M4.96577394,16.9642514 L9.09888338,19.9301689 L7.52270683,24.7214312 L2.40884105,24.7214312 L0.832664502,19.9301689 L4.96577394,16.9642514 Z" id="Polygon" stroke="#D363A8" fill="none"/>
      <ellipse id="Oval" fill="none" stroke="#328A8B" cx="41.9332022" cy="7.62945636" rx="5.0175266" ry="4.94961168"/>
      <ellipse id="Oval" fill="#328A8B" cx="41.9332022" cy="7.62945636" rx="2.20701064" ry="2.17984467"/>
      <g id="Dots-square" transform="translate(25.380622, 31.607748)" fill="#2081C3">
        <ellipse id="Oval" cx="1.10350532" cy="1.08992234" rx="1.10350532" ry="1.08992234"/>
        <ellipse id="Oval" cx="4.41402128" cy="1.08992234" rx="1.10350532" ry="1.08992234"/>
        <ellipse id="Oval" cx="7.72453724" cy="1.08992234" rx="1.10350532" ry="1.08992234"/>
        <ellipse id="Oval" cx="1.10350532" cy="4.35968935" rx="1.10350532" ry="1.08992234"/>
        <ellipse id="Oval" cx="4.41402128" cy="4.35968935" rx="1.10350532" ry="1.08992234"/>
        <ellipse id="Oval" cx="7.72453724" cy="4.35968935" rx="1.10350532" ry="1.08992234"/>
        <ellipse id="Oval" cx="1.10350532" cy="7.62945636" rx="1.10350532" ry="1.08992234"/>
        <ellipse id="Oval" cx="4.41402128" cy="7.62945636" rx="1.10350532" ry="1.08992234"/>
        <ellipse id="Oval" cx="7.72453724" cy="7.62945636" rx="1.10350532" ry="1.08992234"/>
      </g>
      <g id="Jagged-line" transform="translate(49.094076, 25.997433) rotate(20.000000) translate(-49.094076, -25.997433) translate(39.594076, 23.997433)" stroke="#F9C163" stroke-linecap="square">
        <line x1="0.55175266" y1="2.72480584" x2="2.7587633" y2="0.544961168" id="Line-11"/>
        <line x1="2.7587633" y1="2.72480584" x2="4.96577394" y2="0.544961168" id="Line-11" transform="translate(3.862269, 1.634884) scale(1, -1) translate(-3.862269, -1.634884) "/>
        <line x1="4.96577394" y1="2.72480584" x2="7.17278458" y2="0.544961168" id="Line-11"/>
        <line x1="7.17278458" y1="2.72480584" x2="9.37979522" y2="0.544961168" id="Line-11" transform="translate(8.276290, 1.634884) scale(1, -1) translate(-8.276290, -1.634884) "/>
        <line x1="9.37979522" y1="2.72480584" x2="11.5868059" y2="0.544961168" id="Line-11"/>
        <line x1="11.5868059" y1="2.72480584" x2="13.7938165" y2="0.544961168" id="Line-11" transform="translate(12.690311, 1.634884) scale(1, -1) translate(-12.690311, -1.634884) "/>
        <line x1="13.7938165" y1="2.72480584" x2="16.0008271" y2="0.544961168" id="Line-11"/>
        <line x1="16.0008271" y1="2.72480584" x2="18.2078378" y2="0.544961168" id="Line-11" transform="translate(17.104332, 1.634884) scale(1, -1) translate(-17.104332, -1.634884) "/>
      </g>
      <rect id="Rectangle" fill="#FC8D55" x="9.93154789" y="0" width="4.41402128" height="4.35968935" rx="1"/>
    </g>
    <g opacity="0.98" transform="matrix(-0.882948, -0.469472, 0.469472, -0.882948, 324.948761, 91.910347)">
      <path d="M4.4853191,25.6141243 L7.70570819,27.9049788 L6.4799633,31.5985986 L2.4906749,31.5985986 L1.26493,27.9049788 L4.4853191,25.6141243 Z" id="Polygon" stroke="#D363A8" fill="none"/>
      <ellipse id="Oval" stroke="#328A8B" fill="none" cx="98.2531754" cy="5.17608181" rx="3.95274077" ry="3.85968935"/>
      <ellipse id="Oval" fill="#328A8B" cx="98.2531754" cy="5.17608181" rx="1.78109631" ry="1.74387574"/>
      <g id="Dots-square" transform="translate(67.681660, 33.351624)" fill="#2081C3">
        <ellipse id="Oval" cx="0.890548153" cy="0.871937869" rx="1" ry="1"/>
        <ellipse id="Oval" cx="3.56219261" cy="0.871937869" rx="1" ry="1"/>
        <ellipse id="Oval" cx="6.23383707" cy="0.871937869" rx="1" ry="1"/>
        <ellipse id="Oval" cx="0.890548153" cy="3.48775148" rx="1" ry="1"/>
        <ellipse id="Oval" cx="3.56219261" cy="3.48775148" rx="1" ry="1"/>
        <ellipse id="Oval" cx="6.23383707" cy="3.48775148" rx="1" ry="1"/>
        <ellipse id="Oval" cx="0.890548153" cy="6.10356509" rx="1" ry="1"/>
        <ellipse id="Oval" cx="3.56219261" cy="6.10356509" rx="1" ry="1"/>
        <ellipse id="Oval" cx="6.23383707" cy="6.10356509" rx="1" ry="1"/>
      </g>
      <g id="Jagged-line" transform="translate(87.167180, 28.883716) rotate(20.000000) translate(-87.167180, -28.883716) translate(79.167180, 27.383716)" stroke="#F9C163" stroke-linecap="square">
        <line x1="0.445274077" y1="2.17984467" x2="2.22637038" y2="0.435968935" id="Line-11"/>
        <line x1="2.22637038" y1="2.17984467" x2="4.00746669" y2="0.435968935" id="Line-11" transform="translate(3.116919, 1.307907) scale(1, -1) translate(-3.116919, -1.307907) "/>
        <line x1="4.00746669" y1="2.17984467" x2="5.788563" y2="0.435968935" id="Line-11"/>
        <line x1="5.788563" y1="2.17984467" x2="7.5696593" y2="0.435968935" id="Line-11" transform="translate(6.679111, 1.307907) scale(1, -1) translate(-6.679111, -1.307907) "/>
        <line x1="7.5696593" y1="2.17984467" x2="9.35075561" y2="0.435968935" id="Line-11"/>
        <line x1="9.35075561" y1="2.17984467" x2="11.1318519" y2="0.435968935" id="Line-11" transform="translate(10.241304, 1.307907) scale(1, -1) translate(-10.241304, -1.307907) "/>
        <line x1="11.1318519" y1="2.17984467" x2="12.9129482" y2="0.435968935" id="Line-11"/>
        <line x1="12.9129482" y1="2.17984467" x2="14.6940445" y2="0.435968935" id="Line-11" transform="translate(13.803496, 1.307907) scale(1, -1) translate(-13.803496, -1.307907) "/>
      </g>
      <rect id="Rectangle" fill="#FC8D55" x="56.9110009" y="2.61150746" width="3.56219261" height="3.48775148" rx="1"/>
    </g>
    <g opacity="0.72" transform="translate(378.480276, 41.565834) rotate(-348.000000) translate(-378.480276, -41.565834) translate(320.480276, 12.065834)">
      <path d="M4.88954403,27.7457018 L8.93865157,30.6292878 L7.39613318,35.2826502 L2.38295487,35.2826502 L0.840436485,30.6292878 L4.88954403,27.7457018 Z" id="Polygon" stroke="#D363A8" fill="none"/>
      <ellipse id="Oval" stroke="#328A8B" cx="109.669567" cy="5.36300404" rx="4.92072789" ry="4.81337139" fill="none"/>
      <ellipse id="Oval" fill="#328A8B" cx="109.669567" cy="5.36300404" rx="2.16829116" ry="2.12534856"/>
      <g id="Dots-square" transform="translate(37.115993, 49.774659)" fill="#2081C3">
        <ellipse id="Oval" cx="1.08414558" cy="1.06267428" rx="1.08414558" ry="1.06267428"/>
        <ellipse id="Oval" cx="4.33658231" cy="1.06267428" rx="1.08414558" ry="1.06267428"/>
        <ellipse id="Oval" cx="7.58901905" cy="1.06267428" rx="1.08414558" ry="1.06267428"/>
        <ellipse id="Oval" cx="1.08414558" cy="4.25069711" rx="1.08414558" ry="1.06267428"/>
        <ellipse id="Oval" cx="4.33658231" cy="4.25069711" rx="1.08414558" ry="1.06267428"/>
        <ellipse id="Oval" cx="7.58901905" cy="4.25069711" rx="1.08414558" ry="1.06267428"/>
        <ellipse id="Oval" cx="1.08414558" cy="7.43871995" rx="1.08414558" ry="1.06267428"/>
        <ellipse id="Oval" cx="4.33658231" cy="7.43871995" rx="1.08414558" ry="1.06267428"/>
        <ellipse id="Oval" cx="7.58901905" cy="7.43871995" rx="1.08414558" ry="1.06267428"/>
      </g>
      <g id="Jagged-line" transform="translate(76.825511, 42.041207) rotate(20.000000) translate(-76.825511, -42.041207) translate(67.325511, 40.041207)" stroke="#F9C163" stroke-linecap="square">
        <line x1="0.542072789" y1="2.6566857" x2="2.71036395" y2="0.531337139" id="Line-11"/>
        <line x1="2.71036395" y1="2.6566857" x2="4.8786551" y2="0.531337139" id="Line-11" transform="translate(3.794510, 1.594011) scale(1, -1) translate(-3.794510, -1.594011) "/>
        <line x1="4.8786551" y1="2.6566857" x2="7.04694626" y2="0.531337139" id="Line-11"/>
        <line x1="7.04694626" y1="2.6566857" x2="9.21523741" y2="0.531337139" id="Line-11" transform="translate(8.131092, 1.594011) scale(1, -1) translate(-8.131092, -1.594011) "/>
        <line x1="9.21523741" y1="2.6566857" x2="11.3835286" y2="0.531337139" id="Line-11"/>
        <line x1="11.3835286" y1="2.6566857" x2="13.5518197" y2="0.531337139" id="Line-11" transform="translate(12.467674, 1.594011) scale(1, -1) translate(-12.467674, -1.594011) "/>
        <line x1="13.5518197" y1="2.6566857" x2="15.7201109" y2="0.531337139" id="Line-11"/>
        <line x1="15.7201109" y1="2.6566857" x2="17.888402" y2="0.531337139" id="Line-11" transform="translate(16.804256, 1.594011) scale(1, -1) translate(-16.804256, -1.594011) "/>
      </g>
      <rect id="Rectangle" fill="#FC8D55" x="20.0179737" y="10.0817816" width="4.33658231" height="4.25069711" rx="1"/>
    </g>
    <g opacity="0.93" transform="translate(370.791984, 118.249691) rotate(-296.000000) translate(-370.791984, -118.249691) translate(337.791984, 78.249691)">
      <path d="M5.42795324,36.9774083 L9.7252957,40.0311256 L8.08841116,44.9584351 L2.76749532,44.9584351 L1.13061078,40.0311256 L5.42795324,36.9774083 Z" id="Polygon" stroke="#D363A8" fill="none"/>
      <ellipse id="Oval" stroke="#328A8B" cx="59.9983408" cy="6.07668422" rx="5.21112403" ry="5.08585198" fill="none"/>
      <ellipse id="Oval" fill="#328A8B" cx="59.9983408" cy="6.07668422" rx="2.28444961" ry="2.23434079"/>
      <g id="Dots-square" transform="translate(28.584569, 70.922284)" fill="#2081C3">
        <ellipse id="Oval" cx="1.14222481" cy="1.1171704" rx="1.14222481" ry="1.1171704"/>
        <ellipse id="Oval" cx="4.56889922" cy="1.1171704" rx="1.14222481" ry="1.1171704"/>
        <ellipse id="Oval" cx="7.99557364" cy="1.1171704" rx="1.14222481" ry="1.1171704"/>
        <ellipse id="Oval" cx="1.14222481" cy="4.46868158" rx="1.14222481" ry="1.1171704"/>
        <ellipse id="Oval" cx="4.56889922" cy="4.46868158" rx="1.14222481" ry="1.1171704"/>
        <ellipse id="Oval" cx="7.99557364" cy="4.46868158" rx="1.14222481" ry="1.1171704"/>
        <ellipse id="Oval" cx="1.14222481" cy="7.82019277" rx="1.14222481" ry="1.1171704"/>
        <ellipse id="Oval" cx="4.56889922" cy="7.82019277" rx="1.14222481" ry="1.1171704"/>
        <ellipse id="Oval" cx="7.99557364" cy="7.82019277" rx="1.14222481" ry="1.1171704"/>
      </g>
      <rect id="Rectangle" fill="#FC8D55" x="18.2371554" y="6.45625641" width="4.56889922" height="4.46868158" rx="1"/>
    </g>
    <g opacity="0.71" transform="translate(389.201180, 193.981910) rotate(-311.000000) translate(-389.201180, -193.981910) translate(336.701180, 169.981910)">
      <path d="M5.60093345,36.0914033 L9.8982759,39.1451206 L8.26139137,44.0724301 L2.94047552,44.0724301 L1.30359099,39.1451206 L5.60093345,36.0914033 Z" id="Polygon" stroke="#D363A8" fill="none"/>
      <ellipse id="Oval" stroke="#328A8B" cx="60.8969108" cy="10.3632251" rx="5.21112403" ry="5.08585198" fill="none"/>
      <ellipse id="Oval" fill="#328A8B" cx="60.8969108" cy="10.3632251" rx="2.28444961" ry="2.23434079"/>
      <g id="Dots-square" transform="translate(44.740365, 38.447010)" fill="#2081C3">
        <ellipse id="Oval" cx="1.14222481" cy="1.1171704" rx="1.14222481" ry="1.1171704"/>
        <ellipse id="Oval" cx="4.56889922" cy="1.1171704" rx="1.14222481" ry="1.1171704"/>
        <ellipse id="Oval" cx="7.99557364" cy="1.1171704" rx="1.14222481" ry="1.1171704"/>
        <ellipse id="Oval" cx="1.14222481" cy="4.46868158" rx="1.14222481" ry="1.1171704"/>
        <ellipse id="Oval" cx="4.56889922" cy="4.46868158" rx="1.14222481" ry="1.1171704"/>
        <ellipse id="Oval" cx="7.99557364" cy="4.46868158" rx="1.14222481" ry="1.1171704"/>
        <ellipse id="Oval" cx="1.14222481" cy="7.82019277" rx="1.14222481" ry="1.1171704"/>
        <ellipse id="Oval" cx="4.56889922" cy="7.82019277" rx="1.14222481" ry="1.1171704"/>
        <ellipse id="Oval" cx="7.99557364" cy="7.82019277" rx="1.14222481" ry="1.1171704"/>
      </g>
      <g id="Jagged-line" transform="translate(94.676390, 39.549895) rotate(20.000000) translate(-94.676390, -39.549895) translate(84.676390, 37.549895)" stroke="#F9C163" stroke-linecap="square">
        <line x1="0.571112403" y1="2.79292599" x2="2.85556201" y2="0.558585198" id="Line-11"/>
        <line x1="2.85556201" y1="2.79292599" x2="5.14001162" y2="0.558585198" id="Line-11" transform="translate(3.997787, 1.675756) scale(1, -1) translate(-3.997787, -1.675756) "/>
        <line x1="5.14001162" y1="2.79292599" x2="7.42446124" y2="0.558585198" id="Line-11"/>
        <line x1="7.42446124" y1="2.79292599" x2="9.70891085" y2="0.558585198" id="Line-11" transform="translate(8.566686, 1.675756) scale(1, -1) translate(-8.566686, -1.675756) "/>
        <line x1="9.70891085" y1="2.79292599" x2="11.9933605" y2="0.558585198" id="Line-11"/>
        <line x1="11.9933605" y1="2.79292599" x2="14.2778101" y2="0.558585198" id="Line-11" transform="translate(13.135585, 1.675756) scale(1, -1) translate(-13.135585, -1.675756) "/>
        <line x1="14.2778101" y1="2.79292599" x2="16.5622597" y2="0.558585198" id="Line-11"/>
        <line x1="16.5622597" y1="2.79292599" x2="18.8467093" y2="0.558585198" id="Line-11" transform="translate(17.704484, 1.675756) scale(1, -1) translate(-17.704484, -1.675756) "/>
      </g>
      <rect id="Rectangle" fill="#FC8D55" x="24.0017029" y="0.658216552" width="4.56889922" height="4.46868158" rx="1"/>
    </g>
    <g opacity="0.74" transform="translate(295.923098, 209.321581) rotate(-221.000000) translate(-295.923098, -209.321581) translate(261.923098, 184.821581)">
      <path d="M4.10542395,32.638744 L7.32581304,34.9295986 L6.10006815,38.6232183 L2.11077975,38.6232183 L0.885034858,34.9295986 L4.10542395,32.638744 Z" id="Polygon" stroke="#D363A8" fill="none"/>
      <ellipse id="Oval" stroke="#328A8B" cx="47.401989" cy="9.83200414" rx="3.95274077" ry="3.85968935" fill="none"/>
      <ellipse id="Oval" fill="#328A8B" cx="47.401989" cy="9.83200414" rx="1.78109631" ry="1.74387574"/>
      <g id="Jagged-line" transform="translate(59.289022, 44.160643) rotate(20.000000) translate(-59.289022, -44.160643) translate(51.289022, 42.660643)" stroke="#F9C163" stroke-linecap="square">
        <line x1="0.445274077" y1="2.17984467" x2="2.22637038" y2="0.435968935" id="Line-11"/>
        <line x1="2.22637038" y1="2.17984467" x2="4.00746669" y2="0.435968935" id="Line-11" transform="translate(3.116919, 1.307907) scale(1, -1) translate(-3.116919, -1.307907) "/>
        <line x1="4.00746669" y1="2.17984467" x2="5.788563" y2="0.435968935" id="Line-11"/>
        <line x1="5.788563" y1="2.17984467" x2="7.5696593" y2="0.435968935" id="Line-11" transform="translate(6.679111, 1.307907) scale(1, -1) translate(-6.679111, -1.307907) "/>
        <line x1="7.5696593" y1="2.17984467" x2="9.35075561" y2="0.435968935" id="Line-11"/>
        <line x1="9.35075561" y1="2.17984467" x2="11.1318519" y2="0.435968935" id="Line-11" transform="translate(10.241304, 1.307907) scale(1, -1) translate(-10.241304, -1.307907) "/>
        <line x1="11.1318519" y1="2.17984467" x2="12.9129482" y2="0.435968935" id="Line-11"/>
        <line x1="12.9129482" y1="2.17984467" x2="14.6940445" y2="0.435968935" id="Line-11" transform="translate(13.803496, 1.307907) scale(1, -1) translate(-13.803496, -1.307907) "/>
      </g>
      <rect id="Rectangle" fill="#FC8D55" x="0.232453598" y="0.192498996" width="3.56219261" height="3.48775148" rx="1"/>
    </g>
    <g opacity="0.93" transform="translate(88.950111, 139.282386) rotate(-92.000000) translate(-88.950111, -139.282386) translate(40.950111, 101.782386)">
      <path d="M24.1162974,49.5646517 L29.8560759,53.3469512 L27.6844956,59.4087232 L20.5480992,59.4087232 L18.3765189,53.3469512 L24.1162974,49.5646517 Z" id="Polygon" stroke="#D363A8" fill="none"/>
      <ellipse id="Oval" stroke="#328A8B" cx="56.4372365" cy="12.2414366" rx="6.68246445" ry="6.55724713" fill="none"/>
      <ellipse id="Oval" fill="#328A8B" cx="56.4372365" cy="12.2414366" rx="3.07819905" ry="3.02453448"/>
      <g id="Jagged-line" transform="translate(83.274287, 68.048608) rotate(20.000000) translate(-83.274287, -68.048608) translate(70.774287, 65.548608)" stroke="#F9C163" stroke-linecap="square">
        <line x1="0.716310471" y1="3.47412745" x2="3.58155236" y2="0.69482549" id="Line-11"/>
        <line x1="3.58155236" y1="3.47412745" x2="6.44679424" y2="0.69482549" id="Line-11" transform="translate(5.014173, 2.084476) scale(1, -1) translate(-5.014173, -2.084476) "/>
        <line x1="6.44679424" y1="3.47412745" x2="9.31203613" y2="0.69482549" id="Line-11"/>
        <line x1="9.31203613" y1="3.47412745" x2="12.177278" y2="0.69482549" id="Line-11" transform="translate(10.744657, 2.084476) scale(1, -1) translate(-10.744657, -2.084476) "/>
        <line x1="12.177278" y1="3.47412745" x2="15.0425199" y2="0.69482549" id="Line-11"/>
        <line x1="15.0425199" y1="3.47412745" x2="17.9077618" y2="0.69482549" id="Line-11" transform="translate(16.475141, 2.084476) scale(1, -1) translate(-16.475141, -2.084476) "/>
        <line x1="17.9077618" y1="3.47412745" x2="20.7730037" y2="0.69482549" id="Line-11"/>
        <line x1="20.7730037" y1="3.47412745" x2="23.6382456" y2="0.69482549" id="Line-11" transform="translate(22.205625, 2.084476) scale(1, -1) translate(-22.205625, -2.084476) "/>
      </g>
      <rect id="Rectangle" fill="#FC8D55" x="0.286754344" y="0.334338767" width="6.1563981" height="6.04906897" rx="1"/>
    </g>
    <g opacity="0.75" transform="translate(119.765862, 229.776087) rotate(-300.000000) translate(-119.765862, -229.776087) translate(95.765862, 181.276087)">
      <path d="M10.9285746,40.0966391 L13.9008382,42.2171336 L12.7692676,45.6368837 L9.0878816,45.6368837 L7.95631106,42.2171336 L10.9285746,40.0966391 Z" id="Polygon" stroke="#D363A8" fill="none"/>
      <ellipse id="Oval" stroke="#328A8B" cx="43.7821841" cy="4.32809854" rx="3.66234463" ry="3.58720876" fill="none"/>
      <ellipse id="Oval" fill="#328A8B" cx="43.7821841" cy="4.32809854" rx="1.66493785" ry="1.6348835"/>
      <g id="Dots-square" transform="translate(0.063925, 89.577317)" fill="#2081C3">
        <ellipse id="Oval" cx="0.832468926" cy="0.817441752" rx="1" ry="1"/>
        <ellipse id="Oval" cx="3.3298757" cy="0.817441752" rx="1" ry="1"/>
        <ellipse id="Oval" cx="5.82728248" cy="0.817441752" rx="1" ry="1"/>
        <ellipse id="Oval" cx="0.832468926" cy="3.26976701" rx="1" ry="1"/>
        <ellipse id="Oval" cx="3.3298757" cy="3.26976701" rx="1" ry="1"/>
        <ellipse id="Oval" cx="5.82728248" cy="3.26976701" rx="1" ry="1"/>
        <ellipse id="Oval" cx="0.832468926" cy="5.72209227" rx="1" ry="1"/>
        <ellipse id="Oval" cx="3.3298757" cy="5.72209227" rx="1" ry="1"/>
        <ellipse id="Oval" cx="5.82728248" cy="5.72209227" rx="1" ry="1"/>
      </g>
    </g>
    <g opacity="0.98" transform="matrix(-0.882948, 0.469472, 0.469472, 0.882948, 253.605743, 93.159462)">
      <path d="M4.4853191,25.6141243 L7.70570819,27.9049788 L6.4799633,31.5985986 L2.4906749,31.5985986 L1.26493,27.9049788 L4.4853191,25.6141243 Z" id="path-1" stroke="#D363A8" fill="none"/>
      <ellipse id="ellipse-1" stroke="#328A8B" fill="none" cx="98.2531754" cy="5.17608181" rx="3.95274077" ry="3.85968935"/>
      <ellipse id="ellipse-1" fill="#328A8B" cx="98.2531754" cy="5.17608181" rx="1.78109631" ry="1.74387574"/>
      <g id="g-1" transform="translate(67.681660, 33.351624)" fill="#2081C3">
        <ellipse id="ellipse-1" cx="0.890548153" cy="0.871937869" rx="1" ry="1"/>
        <ellipse id="ellipse-1" cx="3.56219261" cy="0.871937869" rx="1" ry="1"/>
        <ellipse id="ellipse-1" cx="6.23383707" cy="0.871937869" rx="1" ry="1"/>
        <ellipse id="ellipse-1" cx="0.890548153" cy="3.48775148" rx="1" ry="1"/>
        <ellipse id="ellipse-1" cx="3.56219261" cy="3.48775148" rx="1" ry="1"/>
        <ellipse id="ellipse-1" cx="6.23383707" cy="3.48775148" rx="1" ry="1"/>
        <ellipse id="ellipse-1" cx="0.890548153" cy="6.10356509" rx="1" ry="1"/>
        <ellipse id="ellipse-1" cx="3.56219261" cy="6.10356509" rx="1" ry="1"/>
        <ellipse id="ellipse-1" cx="6.23383707" cy="6.10356509" rx="1" ry="1"/>
      </g>
      <g id="g-2" transform="translate(87.167180, 28.883716) rotate(20.000000) translate(-87.167180, -28.883716) translate(79.167180, 27.383716)" stroke="#F9C163" stroke-linecap="square">
        <line x1="0.445274077" y1="2.17984467" x2="2.22637038" y2="0.435968935" id="line-1"/>
        <line x1="2.22637038" y1="2.17984467" x2="4.00746669" y2="0.435968935" id="line-1" transform="translate(3.116919, 1.307907) scale(1, -1) translate(-3.116919, -1.307907) "/>
        <line x1="4.00746669" y1="2.17984467" x2="5.788563" y2="0.435968935" id="line-1"/>
        <line x1="5.788563" y1="2.17984467" x2="7.5696593" y2="0.435968935" id="line-1" transform="translate(6.679111, 1.307907) scale(1, -1) translate(-6.679111, -1.307907) "/>
        <line x1="7.5696593" y1="2.17984467" x2="9.35075561" y2="0.435968935" id="line-1"/>
        <line x1="9.35075561" y1="2.17984467" x2="11.1318519" y2="0.435968935" id="line-1" transform="translate(10.241304, 1.307907) scale(1, -1) translate(-10.241304, -1.307907) "/>
        <line x1="11.1318519" y1="2.17984467" x2="12.9129482" y2="0.435968935" id="line-1"/>
        <line x1="12.9129482" y1="2.17984467" x2="14.6940445" y2="0.435968935" id="line-1" transform="translate(13.803496, 1.307907) scale(1, -1) translate(-13.803496, -1.307907) "/>
      </g>
      <rect id="rect-1" fill="#FC8D55" x="56.9110009" y="2.61150746" width="3.56219261" height="3.48775148" rx="1"/>
    </g>
    <g opacity="0.98" transform="matrix(0.882948, -0.469472, -0.469472, -0.882948, 47.546806, 72.571838)">
      <path d="M4.4853191,25.6141243 L7.70570819,27.9049788 L6.4799633,31.5985986 L2.4906749,31.5985986 L1.26493,27.9049788 L4.4853191,25.6141243 Z" id="path-2" stroke="#D363A8" fill="none"/>
      <ellipse id="ellipse-2" stroke="#328A8B" fill="none" cx="98.2531754" cy="5.17608181" rx="3.95274077" ry="3.85968935"/>
      <ellipse id="ellipse-2" fill="#328A8B" cx="98.2531754" cy="5.17608181" rx="1.78109631" ry="1.74387574"/>
      <g id="g-3" transform="translate(67.681660, 33.351624)" fill="#2081C3">
        <ellipse id="ellipse-2" cx="0.890548153" cy="0.871937869" rx="1" ry="1"/>
        <ellipse id="ellipse-2" cx="3.56219261" cy="0.871937869" rx="1" ry="1"/>
        <ellipse id="ellipse-2" cx="6.23383707" cy="0.871937869" rx="1" ry="1"/>
        <ellipse id="ellipse-2" cx="0.890548153" cy="3.48775148" rx="1" ry="1"/>
        <ellipse id="ellipse-2" cx="3.56219261" cy="3.48775148" rx="1" ry="1"/>
        <ellipse id="ellipse-2" cx="6.23383707" cy="3.48775148" rx="1" ry="1"/>
        <ellipse id="ellipse-2" cx="0.890548153" cy="6.10356509" rx="1" ry="1"/>
        <ellipse id="ellipse-2" cx="3.56219261" cy="6.10356509" rx="1" ry="1"/>
        <ellipse id="ellipse-2" cx="6.23383707" cy="6.10356509" rx="1" ry="1"/>
      </g>
      <g id="g-4" transform="translate(87.167180, 28.883716) rotate(20.000000) translate(-87.167180, -28.883716) translate(79.167180, 27.383716)" stroke="#F9C163" stroke-linecap="square">
        <line x1="0.445274077" y1="2.17984467" x2="2.22637038" y2="0.435968935" id="line-2"/>
        <line x1="2.22637038" y1="2.17984467" x2="4.00746669" y2="0.435968935" id="line-2" transform="translate(3.116919, 1.307907) scale(1, -1) translate(-3.116919, -1.307907) "/>
        <line x1="4.00746669" y1="2.17984467" x2="5.788563" y2="0.435968935" id="line-2"/>
        <line x1="5.788563" y1="2.17984467" x2="7.5696593" y2="0.435968935" id="line-2" transform="translate(6.679111, 1.307907) scale(1, -1) translate(-6.679111, -1.307907) "/>
        <line x1="7.5696593" y1="2.17984467" x2="9.35075561" y2="0.435968935" id="line-2"/>
        <line x1="9.35075561" y1="2.17984467" x2="11.1318519" y2="0.435968935" id="line-2" transform="translate(10.241304, 1.307907) scale(1, -1) translate(-10.241304, -1.307907) "/>
        <line x1="11.1318519" y1="2.17984467" x2="12.9129482" y2="0.435968935" id="line-2"/>
        <line x1="12.9129482" y1="2.17984467" x2="14.6940445" y2="0.435968935" id="line-2" transform="translate(13.803496, 1.307907) scale(1, -1) translate(-13.803496, -1.307907) "/>
      </g>
      <rect id="rect-2" fill="#FC8D55" x="56.9110009" y="2.61150746" width="3.56219261" height="3.48775148" rx="1"/>
    </g>
    <g opacity="0.93" transform="matrix(0.921663, 0.449525, 0.449525, -0.921663, 213.808548, 148.075272)" style="">
      <path d="M5.42795324,36.9774083 L9.7252957,40.0311256 L8.08841116,44.9584351 L2.76749532,44.9584351 L1.13061078,40.0311256 L5.42795324,36.9774083 Z" id="path-3" stroke="#D363A8" fill="none"/>
      <ellipse id="ellipse-3" stroke="#328A8B" cx="59.9983408" cy="6.07668422" rx="5.21112403" ry="5.08585198" fill="none"/>
      <ellipse id="ellipse-3" fill="#328A8B" cx="59.9983408" cy="6.07668422" rx="2.28444961" ry="2.23434079"/>
      <g id="g-5" transform="translate(28.584569, 70.922284)" fill="#2081C3">
        <ellipse id="ellipse-3" cx="1.14222481" cy="1.1171704" rx="1.14222481" ry="1.1171704"/>
        <ellipse id="ellipse-3" cx="4.56889922" cy="1.1171704" rx="1.14222481" ry="1.1171704"/>
        <ellipse id="ellipse-3" cx="7.99557364" cy="1.1171704" rx="1.14222481" ry="1.1171704"/>
        <ellipse id="ellipse-3" cx="1.14222481" cy="4.46868158" rx="1.14222481" ry="1.1171704"/>
        <ellipse id="ellipse-3" cx="4.56889922" cy="4.46868158" rx="1.14222481" ry="1.1171704"/>
        <ellipse id="ellipse-3" cx="7.99557364" cy="4.46868158" rx="1.14222481" ry="1.1171704"/>
        <ellipse id="ellipse-3" cx="1.14222481" cy="7.82019277" rx="1.14222481" ry="1.1171704"/>
        <ellipse id="ellipse-3" cx="4.56889922" cy="7.82019277" rx="1.14222481" ry="1.1171704"/>
        <ellipse id="ellipse-3" cx="7.99557364" cy="7.82019277" rx="1.14222481" ry="1.1171704"/>
      </g>
      <rect id="rect-3" fill="#FC8D55" x="18.2371554" y="6.45625641" width="4.56889922" height="4.46868158" rx="1"/>
    </g>
    <g opacity="0.75" transform="matrix(-0.5, 0.866025, 0.866025, 0.5, 322.310394, -25.78891)">
      <path d="M10.9285746,40.0966391 L13.9008382,42.2171336 L12.7692676,45.6368837 L9.0878816,45.6368837 L7.95631106,42.2171336 L10.9285746,40.0966391 Z" id="path-4" stroke="#D363A8" fill="none"/>
      <ellipse id="ellipse-4" stroke="#328A8B" cx="43.7821841" cy="4.32809854" rx="3.66234463" ry="3.58720876" fill="none"/>
      <ellipse id="ellipse-4" fill="#328A8B" cx="43.7821841" cy="4.32809854" rx="1.66493785" ry="1.6348835"/>
      <g id="g-6" transform="translate(0.063925, 89.577317)" fill="#2081C3">
        <ellipse id="ellipse-4" cx="0.832468926" cy="0.817441752" rx="1" ry="1"/>
        <ellipse id="ellipse-4" cx="3.3298757" cy="0.817441752" rx="1" ry="1"/>
        <ellipse id="ellipse-4" cx="5.82728248" cy="0.817441752" rx="1" ry="1"/>
        <ellipse id="ellipse-4" cx="0.832468926" cy="3.26976701" rx="1" ry="1"/>
        <ellipse id="ellipse-4" cx="3.3298757" cy="3.26976701" rx="1" ry="1"/>
        <ellipse id="ellipse-4" cx="5.82728248" cy="3.26976701" rx="1" ry="1"/>
        <ellipse id="ellipse-4" cx="0.832468926" cy="5.72209227" rx="1" ry="1"/>
        <ellipse id="ellipse-4" cx="3.3298757" cy="5.72209227" rx="1" ry="1"/>
        <ellipse id="ellipse-4" cx="5.82728248" cy="5.72209227" rx="1" ry="1"/>
      </g>
    </g>
    <g opacity="0.75" transform="matrix(-0.5, 0.866025, 0.866025, 0.5, 155.874649, 205.471878)">
      <path d="M10.9285746,40.0966391 L13.9008382,42.2171336 L12.7692676,45.6368837 L9.0878816,45.6368837 L7.95631106,42.2171336 L10.9285746,40.0966391 Z" id="path-5" stroke="#D363A8" fill="none"/>
      <ellipse id="ellipse-5" stroke="#328A8B" cx="43.7821841" cy="4.32809854" rx="3.66234463" ry="3.58720876" fill="none"/>
      <ellipse id="ellipse-5" fill="#328A8B" cx="43.7821841" cy="4.32809854" rx="1.66493785" ry="1.6348835"/>
      <g id="g-7" transform="translate(0.063925, 89.577317)" fill="#2081C3">
        <ellipse id="ellipse-5" cx="0.832468926" cy="0.817441752" rx="1" ry="1"/>
        <ellipse id="ellipse-5" cx="3.3298757" cy="0.817441752" rx="1" ry="1"/>
        <ellipse id="ellipse-5" cx="5.82728248" cy="0.817441752" rx="1" ry="1"/>
        <ellipse id="ellipse-5" cx="0.832468926" cy="3.26976701" rx="1" ry="1"/>
        <ellipse id="ellipse-5" cx="3.3298757" cy="3.26976701" rx="1" ry="1"/>
        <ellipse id="ellipse-5" cx="5.82728248" cy="3.26976701" rx="1" ry="1"/>
        <ellipse id="ellipse-5" cx="0.832468926" cy="5.72209227" rx="1" ry="1"/>
        <ellipse id="ellipse-5" cx="3.3298757" cy="5.72209227" rx="1" ry="1"/>
        <ellipse id="ellipse-5" cx="5.82728248" cy="5.72209227" rx="1" ry="1"/>
      </g>
    </g>
  </g>
</svg>