<svg id="Layer_1" data-name="Layer 1" xmlns="http://www.w3.org/2000/svg" viewBox="0 0 21 21"><defs><style>.cls-1{fill:#535453;stroke:#7e7f7f;stroke-miterlimit:10;}.cls-2{fill:#7e7f7f;}</style></defs><circle class="cls-1" cx="10.5" cy="10.5" r="10"/><path class="cls-2" d="M11.18,11.27h.37a3.24,3.24,0,0,0,.62,0,1.77,1.77,0,0,0,.56-.19,1.32,1.32,0,0,0,.41-.37,1.16,1.16,0,0,0,.15-.62,1.1,1.1,0,0,0-.1-.49,1.06,1.06,0,0,0-.29-.37A1.09,1.09,0,0,0,12.49,9,1.36,1.36,0,0,0,12,8.87a1.24,1.24,0,0,0-.84.28,1.48,1.48,0,0,0-.46.76L9.39,9.58a2.13,2.13,0,0,1,.36-.76,2.37,2.37,0,0,1,.6-.58,2.54,2.54,0,0,1,.79-.39,3.06,3.06,0,0,1,.92-.14,3.38,3.38,0,0,1,1,.15,2.46,2.46,0,0,1,.84.42,2,2,0,0,1,.57.7,2.13,2.13,0,0,1,.21,1,1.87,1.87,0,0,1-1.47,1.84v0a2.14,2.14,0,0,1,1.22.67,1.86,1.86,0,0,1,.46,1.28,2.39,2.39,0,0,1-.24,1.11,2.29,2.29,0,0,1-.66.78,2.76,2.76,0,0,1-.92.47,3.24,3.24,0,0,1-1,.16,4.32,4.32,0,0,1-1-.11,3.36,3.36,0,0,1-.85-.34,2.77,2.77,0,0,1-.68-.6,2.71,2.71,0,0,1-.45-.88l1.29-.4a1.68,1.68,0,0,0,.56.82,1.62,1.62,0,0,0,1.06.33,2,2,0,0,0,.54-.07A1.35,1.35,0,0,0,13,14.8a1.39,1.39,0,0,0,.35-.41,1.34,1.34,0,0,0,.13-.63,1.09,1.09,0,0,0-.19-.66,1.52,1.52,0,0,0-.48-.43,2.41,2.41,0,0,0-.64-.22,3.18,3.18,0,0,0-.67-.07h-.35Z" transform="translate(-1.5 -1.5)"/></svg>