<?xml version="1.0" encoding="UTF-8"?>
<svg width="60px" height="60px" viewBox="0 0 60 60" version="1.1" xmlns="http://www.w3.org/2000/svg" xmlns:xlink="http://www.w3.org/1999/xlink">
    <title>history_toggle_off_black_24dp</title>
    <g id="Page-1" stroke="none" stroke-width="1" fill="none" fill-rule="evenodd">
        <g id="iPhone-11-Pro-Copy-3" transform="translate(-157.000000, -88.000000)">
            <g id="history_toggle_off_black_24dp" transform="translate(157.000000, 88.000000)">
                <rect id="Rectangle" x="0" y="0" width="60" height="60"></rect>
                <path d="M37.75,48.425 L40.25,52.775 C37.85,53.875 35.225,54.6 32.5,54.875 L32.5,49.825 C34.35,49.6 36.1,49.125 37.75,48.425 Z M10.175,32.5 L5.125,32.5 C5.4,35.25 6.125,37.85 7.225,40.25 L11.575,37.75 C10.875,36.1 10.4,34.35 10.175,32.5 Z M37.75,11.575 L40.25,7.225 C37.85,6.125 35.25,5.4 32.5,5.125 L32.5,10.175 C34.35,10.4 36.1,10.875 37.75,11.575 Z M49.825,27.5 L54.875,27.5 C54.6,24.75 53.875,22.15 52.775,19.75 L48.425,22.25 C49.125,23.9 49.6,25.65 49.825,27.5 Z M22.25,48.425 L19.75,52.775 C22.15,53.875 24.775,54.6 27.5,54.875 L27.5,49.825 C25.65,49.6 23.9,49.125 22.25,48.425 Z M27.5,10.175 L27.5,5.125 C24.75,5.4 22.15,6.125 19.75,7.225 L22.25,11.575 C23.9,10.875 25.65,10.4 27.5,10.175 Z M45.9,17.925 L50.25,15.4 C48.675,13.225 46.75,11.3 44.575,9.725 L42.05,14.075 C43.525,15.2 44.8,16.475 45.9,17.925 Z M11.575,22.25 L7.225,19.75 C6.125,22.15 5.4,24.75 5.125,27.5 L10.175,27.5 C10.4,25.65 10.875,23.9 11.575,22.25 Z M49.825,32.5 C49.6,34.35 49.125,36.1 48.425,37.75 L52.775,40.25 C53.875,37.85 54.6,35.225 54.875,32.5 L49.825,32.5 L49.825,32.5 Z M42.075,45.9 L44.6,50.25 C46.775,48.675 48.7,46.75 50.275,44.575 L45.925,42.05 C44.8,43.525 43.525,44.8 42.075,45.9 Z M17.925,14.1 L15.425,9.725 C13.225,11.325 11.325,13.225 9.75,15.425 L14.1,17.95 C15.2,16.475 16.475,15.2 17.925,14.1 Z M14.1,42.075 L9.75,44.575 C11.325,46.75 13.25,48.675 15.425,50.25 L17.95,45.9 C16.475,44.8 15.2,43.525 14.1,42.075 Z M30,17.5 L30,17.5 C28.625,17.5 27.5,18.625 27.5,20 L27.5,28.975 C27.5,30.3 28.025,31.575 28.975,32.5 L36.475,40 C37.45,40.975 39.025,40.975 40,40 L40,40 C40.975,39.025 40.975,37.45 40,36.475 L32.5,28.975 L32.5,20 C32.5,18.625 31.375,17.5 30,17.5 Z" id="Shape" fill="#2081C3" fill-rule="nonzero"></path>
            </g>
        </g>
    </g>
</svg>