<?xml version="1.0" encoding="UTF-8"?>
<svg width="44px" height="72px" viewBox="0 0 44 72" version="1.1" xmlns="http://www.w3.org/2000/svg" xmlns:xlink="http://www.w3.org/1999/xlink">
    <title>reward-ribbon</title>
    <g id="Page-1" stroke="none" stroke-width="1" fill="none" fill-rule="evenodd">
        <g id="reward-ribbon" transform="translate(-13.000000, 0.000000)" fill-rule="nonzero">
            <rect id="Rectangle" fill="#F5A623" x="13.7198662" y="0.216857" width="43" height="45"></rect>
            <path d="M29.8348662,17.216857 L29.8348662,16.336857 L26.1348662,16.336857 L26.1348662,13.976857 L29.4748662,13.976857 L29.4748662,13.126857 L26.1348662,13.126857 L26.1348662,11.006857 L29.6848662,11.006857 L29.6848662,10.136857 L25.1448662,10.136857 L25.1448662,17.216857 L29.8348662,17.216857 Z M32.4748662,17.336857 C32.8348662,17.336857 33.1465329,17.266857 33.4098662,17.126857 C33.6731995,16.986857 33.8915329,16.7901903 34.0648662,16.536857 L34.0648662,16.536857 L34.0948662,16.536857 C34.0948662,16.7635237 34.1215329,16.9901903 34.1748662,17.216857 L34.1748662,17.216857 L35.0248662,17.216857 C34.9981995,17.1035237 34.9798662,16.9585237 34.9698662,16.781857 C34.9598662,16.6051903 34.9548662,16.436857 34.9548662,16.276857 L34.9548662,16.276857 L34.9548662,14.206857 C34.9548662,13.946857 34.9148662,13.7035237 34.8348662,13.476857 C34.7548662,13.2501903 34.6348662,13.0535237 34.4748662,12.886857 C34.3148662,12.7201903 34.1098662,12.5885237 33.8598662,12.491857 C33.6098662,12.3951903 33.3148662,12.346857 32.9748662,12.346857 C32.5881995,12.346857 32.2265329,12.4101903 31.8898662,12.536857 C31.5531995,12.6635237 31.2681995,12.836857 31.0348662,13.056857 L31.0348662,13.056857 L31.5348662,13.656857 C31.6948662,13.496857 31.8931995,13.3651903 32.1298662,13.261857 C32.3665329,13.1585237 32.6181995,13.106857 32.8848662,13.106857 C33.2381995,13.106857 33.5215329,13.191857 33.7348662,13.361857 C33.9481995,13.531857 34.0548662,13.7935237 34.0548662,14.146857 L34.0548662,14.146857 L34.0548662,14.276857 C33.6548662,14.276857 33.2581995,14.2935237 32.8648662,14.326857 C32.4715329,14.3601903 32.1181995,14.431857 31.8048662,14.541857 C31.4915329,14.651857 31.2381995,14.811857 31.0448662,15.021857 C30.8515329,15.231857 30.7548662,15.516857 30.7548662,15.876857 C30.7548662,16.1501903 30.8098662,16.3801903 30.9198662,16.566857 C31.0298662,16.7535237 31.1681995,16.9035237 31.3348662,17.016857 C31.5015329,17.1301903 31.6865329,17.211857 31.8898662,17.261857 C32.0931995,17.311857 32.2881995,17.336857 32.4748662,17.336857 Z M32.6848662,16.596857 C32.5648662,16.596857 32.4481995,16.5851903 32.3348662,16.561857 C32.2215329,16.5385237 32.1181995,16.496857 32.0248662,16.436857 C31.9315329,16.376857 31.8565329,16.3001903 31.7998662,16.206857 C31.7431995,16.1135237 31.7148662,15.996857 31.7148662,15.856857 C31.7148662,15.656857 31.7815329,15.496857 31.9148662,15.376857 C32.0481995,15.256857 32.2165329,15.166857 32.4198662,15.106857 C32.6231995,15.046857 32.8498662,15.006857 33.0998662,14.986857 C33.3498662,14.966857 33.5915329,14.956857 33.8248662,14.956857 L33.8248662,14.956857 L34.0548662,14.956857 L34.0548662,15.206857 C34.0548662,15.606857 33.9365329,15.9385237 33.6998662,16.201857 C33.4631995,16.4651903 33.1248662,16.596857 32.6848662,16.596857 Z M37.4648662,17.216857 L37.4648662,14.726857 C37.4648662,14.526857 37.4915329,14.3351903 37.5448662,14.151857 C37.5981995,13.9685237 37.6798662,13.806857 37.7898662,13.666857 C37.8998662,13.526857 38.0381995,13.4151903 38.2048662,13.331857 C38.3715329,13.2485237 38.5681995,13.206857 38.7948662,13.206857 C38.9481995,13.206857 39.0915329,13.2235237 39.2248662,13.256857 L39.2248662,13.256857 L39.2648662,12.386857 C39.1648662,12.3601903 39.0415329,12.346857 38.8948662,12.346857 C38.5748662,12.346857 38.2865329,12.431857 38.0298662,12.601857 C37.7731995,12.771857 37.5781995,12.996857 37.4448662,13.276857 L37.4448662,13.276857 L37.4148662,13.276857 C37.4148662,13.176857 37.4115329,13.0485237 37.4048662,12.891857 C37.3981995,12.7351903 37.3881995,12.596857 37.3748662,12.476857 L37.3748662,12.476857 L36.4848662,12.476857 C36.4981995,12.6301903 36.5081995,12.806857 36.5148662,13.006857 C36.5215329,13.206857 36.5248662,13.3701903 36.5248662,13.496857 L36.5248662,17.216857 L37.4648662,17.216857 Z M41.0848662,17.216857 L41.0848662,14.696857 C41.0848662,14.2235237 41.2031995,13.8451903 41.4398662,13.561857 C41.6765329,13.2785237 41.9815329,13.136857 42.3548662,13.136857 C42.5748662,13.136857 42.7548662,13.176857 42.8948662,13.256857 C43.0348662,13.336857 43.1448662,13.4435237 43.2248662,13.576857 C43.3048662,13.7101903 43.3598662,13.8635237 43.3898662,14.036857 C43.4198662,14.2101903 43.4348662,14.3935237 43.4348662,14.586857 L43.4348662,14.586857 L43.4348662,17.216857 L44.3748662,17.216857 L44.3748662,14.276857 C44.3748662,14.0101903 44.3398662,13.7601903 44.2698662,13.526857 C44.1998662,13.2935237 44.0915329,13.0901903 43.9448662,12.916857 C43.7981995,12.7435237 43.6148662,12.6051903 43.3948662,12.501857 C43.1748662,12.3985237 42.9115329,12.346857 42.6048662,12.346857 C42.4315329,12.346857 42.2648662,12.3701903 42.1048662,12.416857 C41.9448662,12.4635237 41.7981995,12.5285237 41.6648662,12.611857 C41.5315329,12.6951903 41.4131995,12.791857 41.3098662,12.901857 C41.2065329,13.011857 41.1248662,13.1301903 41.0648662,13.256857 L41.0648662,13.256857 L41.0348662,13.256857 C41.0348662,13.156857 41.0315329,13.031857 41.0248662,12.881857 C41.0181995,12.731857 41.0081995,12.596857 40.9948662,12.476857 L40.9948662,12.476857 L40.1048662,12.476857 C40.1181995,12.6301903 40.1281995,12.806857 40.1348662,13.006857 C40.1415329,13.206857 40.1448662,13.3701903 40.1448662,13.496857 L40.1448662,17.216857 L41.0848662,17.216857 Z M16.8548662,31.216857 L16.8548662,28.066857 L17.9148662,28.066857 L19.7148662,31.216857 L20.9148662,31.216857 L18.9348662,27.966857 C19.4415329,27.8801903 19.8548662,27.676857 20.1748662,27.356857 C20.4948662,27.036857 20.6548662,26.616857 20.6548662,26.096857 C20.6548662,25.736857 20.5881995,25.431857 20.4548662,25.181857 C20.3215329,24.931857 20.1398662,24.7301903 19.9098662,24.576857 C19.6798662,24.4235237 19.4115329,24.311857 19.1048662,24.241857 C18.7981995,24.171857 18.4748662,24.136857 18.1348662,24.136857 L18.1348662,24.136857 L15.8648662,24.136857 L15.8648662,31.216857 L16.8548662,31.216857 Z M17.9948662,27.236857 L16.8548662,27.236857 L16.8548662,24.976857 L18.0648662,24.976857 C18.2781995,24.976857 18.4815329,24.9951903 18.6748662,25.031857 C18.8681995,25.0685237 19.0365329,25.1301903 19.1798662,25.216857 C19.3231995,25.3035237 19.4381995,25.4185237 19.5248662,25.561857 C19.6115329,25.7051903 19.6548662,25.8835237 19.6548662,26.096857 C19.6548662,26.3101903 19.6115329,26.4885237 19.5248662,26.631857 C19.4381995,26.7751903 19.3198662,26.891857 19.1698662,26.981857 C19.0198662,27.071857 18.8448662,27.136857 18.6448662,27.176857 C18.4448662,27.216857 18.2281995,27.236857 17.9948662,27.236857 L17.9948662,27.236857 Z M24.1448662,31.346857 C24.5648662,31.346857 24.9465329,31.2685237 25.2898662,31.111857 C25.6331995,30.9551903 25.9315329,30.7101903 26.1848662,30.376857 L26.1848662,30.376857 L25.5248662,29.846857 C25.3915329,30.046857 25.2081995,30.216857 24.9748662,30.356857 C24.7415329,30.496857 24.4648662,30.566857 24.1448662,30.566857 C23.9381995,30.566857 23.7431995,30.5301903 23.5598662,30.456857 C23.3765329,30.3835237 23.2148662,30.281857 23.0748662,30.151857 C22.9348662,30.021857 22.8231995,29.8685237 22.7398662,29.691857 C22.6565329,29.5151903 22.6115329,29.326857 22.6048662,29.126857 L22.6048662,29.126857 L26.3648662,29.126857 C26.3715329,29.0735237 26.3748662,29.0201903 26.3748662,28.966857 L26.3748662,28.966857 L26.3748662,28.806857 C26.3748662,28.426857 26.3215329,28.0851903 26.2148662,27.781857 C26.1081995,27.4785237 25.9565329,27.2201903 25.7598662,27.006857 C25.5631995,26.7935237 25.3231995,26.6301903 25.0398662,26.516857 C24.7565329,26.4035237 24.4415329,26.346857 24.0948662,26.346857 C23.7481995,26.346857 23.4248662,26.4085237 23.1248662,26.531857 C22.8248662,26.6551903 22.5648662,26.826857 22.3448662,27.046857 C22.1248662,27.266857 21.9531995,27.531857 21.8298662,27.841857 C21.7065329,28.151857 21.6448662,28.4901903 21.6448662,28.856857 C21.6448662,29.2301903 21.7081995,29.5701903 21.8348662,29.876857 C21.9615329,30.1835237 22.1348662,30.4451903 22.3548662,30.661857 C22.5748662,30.8785237 22.8381995,31.046857 23.1448662,31.166857 C23.4515329,31.286857 23.7848662,31.346857 24.1448662,31.346857 Z M25.4248662,28.426857 L22.6048662,28.426857 C22.6181995,28.2401903 22.6665329,28.0651903 22.7498662,27.901857 C22.8331995,27.7385237 22.9398662,27.596857 23.0698662,27.476857 C23.1998662,27.356857 23.3531995,27.261857 23.5298662,27.191857 C23.7065329,27.121857 23.8948662,27.086857 24.0948662,27.086857 C24.3148662,27.086857 24.5065329,27.121857 24.6698662,27.191857 C24.8331995,27.261857 24.9698662,27.356857 25.0798662,27.476857 C25.1898662,27.596857 25.2731995,27.7385237 25.3298662,27.901857 C25.3865329,28.0651903 25.4181995,28.2401903 25.4248662,28.426857 L25.4248662,28.426857 Z M29.5748662,31.216857 L30.7348662,27.656857 L30.7548662,27.656857 L31.9248662,31.216857 L32.9048662,31.216857 L34.4748662,26.476857 L33.4848662,26.476857 L32.4148662,30.096857 L32.3948662,30.096857 L31.2448662,26.476857 L30.2548662,26.476857 L29.1248662,30.096857 L29.1048662,30.096857 L28.0348662,26.476857 L27.0148662,26.476857 L28.5948662,31.216857 L29.5748662,31.216857 Z M36.7848662,31.336857 C37.1448662,31.336857 37.4565329,31.266857 37.7198662,31.126857 C37.9831995,30.986857 38.2015329,30.7901903 38.3748662,30.536857 L38.3748662,30.536857 L38.4048662,30.536857 C38.4048662,30.7635237 38.4315329,30.9901903 38.4848662,31.216857 L38.4848662,31.216857 L39.3348662,31.216857 C39.3081995,31.1035237 39.2898662,30.9585237 39.2798662,30.781857 C39.2698662,30.6051903 39.2648662,30.436857 39.2648662,30.276857 L39.2648662,30.276857 L39.2648662,28.206857 C39.2648662,27.946857 39.2248662,27.7035237 39.1448662,27.476857 C39.0648662,27.2501903 38.9448662,27.0535237 38.7848662,26.886857 C38.6248662,26.7201903 38.4198662,26.5885237 38.1698662,26.491857 C37.9198662,26.3951903 37.6248662,26.346857 37.2848662,26.346857 C36.8981995,26.346857 36.5365329,26.4101903 36.1998662,26.536857 C35.8631995,26.6635237 35.5781995,26.836857 35.3448662,27.056857 L35.3448662,27.056857 L35.8448662,27.656857 C36.0048662,27.496857 36.2031995,27.3651903 36.4398662,27.261857 C36.6765329,27.1585237 36.9281995,27.106857 37.1948662,27.106857 C37.5481995,27.106857 37.8315329,27.191857 38.0448662,27.361857 C38.2581995,27.531857 38.3648662,27.7935237 38.3648662,28.146857 L38.3648662,28.146857 L38.3648662,28.276857 C37.9648662,28.276857 37.5681995,28.2935237 37.1748662,28.326857 C36.7815329,28.3601903 36.4281995,28.431857 36.1148662,28.541857 C35.8015329,28.651857 35.5481995,28.811857 35.3548662,29.021857 C35.1615329,29.231857 35.0648662,29.516857 35.0648662,29.876857 C35.0648662,30.1501903 35.1198662,30.3801903 35.2298662,30.566857 C35.3398662,30.7535237 35.4781995,30.9035237 35.6448662,31.016857 C35.8115329,31.1301903 35.9965329,31.211857 36.1998662,31.261857 C36.4031995,31.311857 36.5981995,31.336857 36.7848662,31.336857 Z M36.9948662,30.596857 C36.8748662,30.596857 36.7581995,30.5851903 36.6448662,30.561857 C36.5315329,30.5385237 36.4281995,30.496857 36.3348662,30.436857 C36.2415329,30.376857 36.1665329,30.3001903 36.1098662,30.206857 C36.0531995,30.1135237 36.0248662,29.996857 36.0248662,29.856857 C36.0248662,29.656857 36.0915329,29.496857 36.2248662,29.376857 C36.3581995,29.256857 36.5265329,29.166857 36.7298662,29.106857 C36.9331995,29.046857 37.1598662,29.006857 37.4098662,28.986857 C37.6598662,28.966857 37.9015329,28.956857 38.1348662,28.956857 L38.1348662,28.956857 L38.3648662,28.956857 L38.3648662,29.206857 C38.3648662,29.606857 38.2465329,29.9385237 38.0098662,30.201857 C37.7731995,30.4651903 37.4348662,30.596857 36.9948662,30.596857 Z M41.7748662,31.216857 L41.7748662,28.726857 C41.7748662,28.526857 41.8015329,28.3351903 41.8548662,28.151857 C41.9081995,27.9685237 41.9898662,27.806857 42.0998662,27.666857 C42.2098662,27.526857 42.3481995,27.4151903 42.5148662,27.331857 C42.6815329,27.2485237 42.8781995,27.206857 43.1048662,27.206857 C43.2581995,27.206857 43.4015329,27.2235237 43.5348662,27.256857 L43.5348662,27.256857 L43.5748662,26.386857 C43.4748662,26.3601903 43.3515329,26.346857 43.2048662,26.346857 C42.8848662,26.346857 42.5965329,26.431857 42.3398662,26.601857 C42.0831995,26.771857 41.8881995,26.996857 41.7548662,27.276857 L41.7548662,27.276857 L41.7248662,27.276857 C41.7248662,27.176857 41.7215329,27.0485237 41.7148662,26.891857 C41.7081995,26.7351903 41.6981995,26.596857 41.6848662,26.476857 L41.6848662,26.476857 L40.7948662,26.476857 C40.8081995,26.6301903 40.8181995,26.806857 40.8248662,27.006857 C40.8315329,27.206857 40.8348662,27.3701903 40.8348662,27.496857 L40.8348662,27.496857 L40.8348662,31.216857 L41.7748662,31.216857 Z M46.5248662,31.346857 C46.8648662,31.346857 47.1898662,31.271857 47.4998662,31.121857 C47.8098662,30.971857 48.0548662,30.7535237 48.2348662,30.466857 L48.2348662,30.466857 L48.2548662,30.466857 L48.2548662,31.216857 L49.1648662,31.216857 L49.1648662,23.656857 L48.2248662,23.656857 L48.2248662,27.186857 L48.2048662,27.186857 C48.0381995,26.9535237 47.8115329,26.7551903 47.5248662,26.591857 C47.2381995,26.4285237 46.9015329,26.346857 46.5148662,26.346857 C46.1615329,26.346857 45.8381995,26.4101903 45.5448662,26.536857 C45.2515329,26.6635237 44.9998662,26.8401903 44.7898662,27.066857 C44.5798662,27.2935237 44.4181995,27.5585237 44.3048662,27.861857 C44.1915329,28.1651903 44.1348662,28.4901903 44.1348662,28.836857 C44.1348662,29.1835237 44.1915329,29.5101903 44.3048662,29.816857 C44.4181995,30.1235237 44.5781995,30.3901903 44.7848662,30.616857 C44.9915329,30.8435237 45.2415329,31.021857 45.5348662,31.151857 C45.8281995,31.281857 46.1581995,31.346857 46.5248662,31.346857 Z M46.6848662,30.556857 C46.4248662,30.556857 46.1981995,30.5085237 46.0048662,30.411857 C45.8115329,30.3151903 45.6481995,30.186857 45.5148662,30.026857 C45.3815329,29.866857 45.2815329,29.6835237 45.2148662,29.476857 C45.1481995,29.2701903 45.1148662,29.056857 45.1148662,28.836857 C45.1148662,28.616857 45.1481995,28.4035237 45.2148662,28.196857 C45.2815329,27.9901903 45.3815329,27.806857 45.5148662,27.646857 C45.6481995,27.486857 45.8115329,27.3601903 46.0048662,27.266857 C46.1981995,27.1735237 46.4248662,27.126857 46.6848662,27.126857 C46.9248662,27.126857 47.1431995,27.1735237 47.3398662,27.266857 C47.5365329,27.3601903 47.7048662,27.486857 47.8448662,27.646857 C47.9848662,27.806857 48.0931995,27.9901903 48.1698662,28.196857 C48.2465329,28.4035237 48.2848662,28.6201903 48.2848662,28.846857 C48.2848662,29.0735237 48.2465329,29.2901903 48.1698662,29.496857 C48.0931995,29.7035237 47.9848662,29.8851903 47.8448662,30.041857 C47.7048662,30.1985237 47.5365329,30.3235237 47.3398662,30.416857 C47.1431995,30.5101903 46.9248662,30.556857 46.6848662,30.556857 Z M52.1648662,31.346857 C52.4048662,31.346857 52.6381995,31.3201903 52.8648662,31.266857 C53.0915329,31.2135237 53.2931995,31.1251903 53.4698662,31.001857 C53.6465329,30.8785237 53.7881995,30.7201903 53.8948662,30.526857 C54.0015329,30.3335237 54.0548662,30.096857 54.0548662,29.816857 C54.0548662,29.6101903 54.0148662,29.4301903 53.9348662,29.276857 C53.8548662,29.1235237 53.7431995,28.991857 53.5998662,28.881857 C53.4565329,28.771857 53.2881995,28.6801903 53.0948662,28.606857 C52.9015329,28.5335237 52.6915329,28.4701903 52.4648662,28.416857 C52.1048662,28.336857 51.8348662,28.2485237 51.6548662,28.151857 C51.4748662,28.0551903 51.3848662,27.906857 51.3848662,27.706857 C51.3848662,27.5935237 51.4098662,27.4985237 51.4598662,27.421857 C51.5098662,27.3451903 51.5765329,27.281857 51.6598662,27.231857 C51.7431995,27.181857 51.8381995,27.1451903 51.9448662,27.121857 C52.0515329,27.0985237 52.1581995,27.086857 52.2648662,27.086857 C52.5048662,27.086857 52.7215329,27.141857 52.9148662,27.251857 C53.1081995,27.361857 53.2581995,27.5035237 53.3648662,27.676857 L53.3648662,27.676857 L54.0148662,27.126857 C53.8415329,26.8735237 53.5965329,26.6801903 53.2798662,26.546857 C52.9631995,26.4135237 52.6348662,26.346857 52.2948662,26.346857 C52.0681995,26.346857 51.8481995,26.3751903 51.6348662,26.431857 C51.4215329,26.4885237 51.2315329,26.5751903 51.0648662,26.691857 C50.8981995,26.8085237 50.7631995,26.9585237 50.6598662,27.141857 C50.5565329,27.3251903 50.5048662,27.5435237 50.5048662,27.796857 C50.5048662,28.016857 50.5465329,28.201857 50.6298662,28.351857 C50.7131995,28.501857 50.8215329,28.626857 50.9548662,28.726857 C51.0881995,28.826857 51.2365329,28.9051903 51.3998662,28.961857 C51.5631995,29.0185237 51.7248662,29.066857 51.8848662,29.106857 C52.2915329,29.2001903 52.5998662,29.3001903 52.8098662,29.406857 C53.0198662,29.5135237 53.1248662,29.676857 53.1248662,29.896857 C53.1248662,30.0301903 53.0981995,30.1401903 53.0448662,30.226857 C52.9915329,30.3135237 52.9198662,30.3835237 52.8298662,30.436857 C52.7398662,30.4901903 52.6398662,30.5285237 52.5298662,30.551857 C52.4198662,30.5751903 52.3048662,30.586857 52.1848662,30.586857 C51.9181995,30.586857 51.6731995,30.5235237 51.4498662,30.396857 C51.2265329,30.2701903 51.0515329,30.1135237 50.9248662,29.926857 L50.9248662,29.926857 L50.2548662,30.496857 C50.4815329,30.7835237 50.7665329,30.996857 51.1098662,31.136857 C51.4531995,31.276857 51.8048662,31.346857 52.1648662,31.346857 Z" id="EarnRewards" fill="#FFFFFF"></path>
            <polygon id="Triangle" fill="#F5A623" transform="translate(50.166615, 51.009166) rotate(48.000000) translate(-50.166615, -51.009166) " points="50.166615 42.0091663 70.166615 60.0091663 30.166615 60.0091663"></polygon>
            <polygon id="Triangle" fill="#F5A623" transform="translate(20.383433, 51.009166) scale(-1, 1) rotate(49.000000) translate(-20.383433, -51.009166) " points="20.3834332 42.0091661 40.3834332 60.0091661 0.383433151 60.0091661"></polygon>
        </g>
    </g>
</svg>