<svg id="Layer_1" data-name="Layer 1" xmlns="http://www.w3.org/2000/svg" viewBox="0 0 50.73 58.32"><defs><style>.cls-1{fill:#231f20;}</style></defs><path class="cls-1" d="M52,.84H26.55a3.4,3.4,0,0,0-3.4,3.4V5.66h24a3.4,3.4,0,0,1,3.39,3.4v24H52a3.4,3.4,0,0,0,3.39-3.4V4.24A3.4,3.4,0,0,0,52,.84Z" transform="translate(-4.64 -0.84)"/><path class="cls-1" d="M46.49,13.11a3.4,3.4,0,0,0-3.4-3.4H17.68a3.4,3.4,0,0,0-3.4,3.4v1.42h24a3.4,3.4,0,0,1,3.4,3.4v24h1.42a3.4,3.4,0,0,0,3.4-3.39V13.11Z" transform="translate(-4.64 -0.84)"/><path class="cls-1" d="M36.85,22.75a3.4,3.4,0,0,0-3.4-3.39H8a3.39,3.39,0,0,0-3.39,3.39V58.22a.94.94,0,0,0,1.61.66l7.31-7.31H33.45a3.4,3.4,0,0,0,3.4-3.4V22.75ZM15,27.42a6.37,6.37,0,0,1,1.49-1.83,6.43,6.43,0,0,1,2-1.15A7.66,7.66,0,0,1,21,24.05a7.83,7.83,0,0,1,2.46.38,6.11,6.11,0,0,1,2,1.11,5.14,5.14,0,0,1,1.37,1.81,5.8,5.8,0,0,1,.5,2.49,6.58,6.58,0,0,1-.21,1.76A5.11,5.11,0,0,1,26.48,33a5.93,5.93,0,0,1-.95,1.14c-.38.35-.78.72-1.22,1.1s-.77.67-1.06.95a3.52,3.52,0,0,0-.69.86,3.13,3.13,0,0,0-.36,1,6.26,6.26,0,0,0-.11,1.32v1.09H19.14v-1.5a6.62,6.62,0,0,1,.16-1.47,5.07,5.07,0,0,1,.45-1.19,5.45,5.45,0,0,1,.73-1,12.3,12.3,0,0,1,.95-1l1.16-1.1a6,6,0,0,0,1.14-1.3,3.29,3.29,0,0,0,.45-1.8,3.09,3.09,0,0,0-.95-2.39,3.45,3.45,0,0,0-2.46-.9,3.25,3.25,0,0,0-2.5,1,4.11,4.11,0,0,0-1.1,2.44l-3-.35A6.82,6.82,0,0,1,15,27.42Zm5.82,19.45a2,2,0,0,1-1.48-.61,1.94,1.94,0,0,1-.61-1.42,2.11,2.11,0,0,1,3.59-1.47,1.93,1.93,0,0,1,.6,1.43,2,2,0,0,1-.6,1.44A2,2,0,0,1,20.77,46.87Z" transform="translate(-4.64 -0.84)"/></svg>